<?xml version="1.0" encoding="utf-8"?>
<!-- Generator: Adobe Illustrator 19.0.0, SVG Export Plug-In . SVG Version: 6.00 Build 0)  -->
<svg version="1.1" id="Layer_1" xmlns="http://www.w3.org/2000/svg" xmlns:xlink="http://www.w3.org/1999/xlink" x="0px" y="0px"
	 viewBox="0 0 150 150" style="enable-background:new 0 0 150 150;" xml:space="preserve">
<style type="text/css">
	.st0{fill:#005B7F;}
	.st1{fill:#FFB600;}
	.st2{fill:#FFFFFF;}
	.st3{fill:#406D7F;}
</style>
<g id="XMLID_1_">
	<path id="XMLID_107_" class="st0" d="M75,9c36.4,0,66,29.6,66,66s-29.6,66-66,66S9,111.4,9,75S38.6,9,75,9 M75,5
		C36.3,5,5,36.3,5,75s31.3,70,70,70s70-31.3,70-70S113.7,5,75,5L75,5z"/>
</g>
<g id="XMLID_2_">
	<circle id="XMLID_110_" class="st1" cx="26.3" cy="29" r="22"/>
</g>
<g id="XMLID_6_">
	<path id="XMLID_10_" class="st2" d="M27.1,34.4h-6.9c-1,0-1.8-0.7-1.8-1.7c0-0.8,0.3-1.4,0.9-2l7.3-8.5c0.7-0.8,1.2-1.2,2.3-1.2
		c1,0,1.8,0.8,1.8,1.8v8.7h0.9c0.8,0,1.5,0.7,1.5,1.5c0,0.8-0.7,1.5-1.5,1.5h-0.9v2c0,1-0.8,1.8-1.8,1.8c-1,0-1.8-0.8-1.8-1.8V34.4z
		 M27.1,31.4v-5.2l-4.5,5.2H27.1z"/>
</g>
<g id="XMLID_4_">
	<path id="XMLID_13_" class="st0" d="M46.6,80.5v28.4c0,1.7,1.4,3.2,3.2,3.2h50.4c1.7,0,3.2-1.4,3.2-3.2V80.5c0-1.7-1.4-3.2-3.2-3.2
		H49.8C48.1,77.4,46.6,78.8,46.6,80.5z"/>
	<path id="XMLID_18_" class="st0" d="M96.3,55.3H53.7l-6.8,20.5h56.2L96.3,55.3z M89.2,67.9H60.8c-0.9,0-1.6-0.7-1.6-1.6
		s0.7-1.6,1.6-1.6h28.4c0.9,0,1.6,0.7,1.6,1.6S90,67.9,89.2,67.9z"/>
	<g id="XMLID_156_">
		<path id="XMLID_5_" class="st3" d="M85.6,66.3H64.4V40.8c0-1.6,1.3-2.8,2.8-2.8h15.6c1.6,0,2.8,1.3,2.8,2.8V66.3z"/>
	</g>
</g>
</svg>
