<?xml version="1.0" encoding="utf-8"?>
<!-- Generator: Adobe Illustrator 19.0.0, SVG Export Plug-In . SVG Version: 6.00 Build 0)  -->
<svg version="1.1" id="Layer_1" xmlns="http://www.w3.org/2000/svg" xmlns:xlink="http://www.w3.org/1999/xlink" x="0px" y="0px"
	 viewBox="0 0 150 150" style="enable-background:new 0 0 150 150;" xml:space="preserve">
<style type="text/css">
	.st0{fill:#005B7F;}
	.st1{fill:#FFB600;}
	.st2{enable-background:new    ;}
	.st3{fill:#FFFFFF;}
</style>
<g id="XMLID_1_">
	<path id="XMLID_107_" class="st0" d="M75,9c36.4,0,66,29.6,66,66s-29.6,66-66,66S9,111.4,9,75S38.6,9,75,9 M75,5
		C36.3,5,5,36.3,5,75s31.3,70,70,70s70-31.3,70-70S113.7,5,75,5L75,5z"/>
</g>
<g id="XMLID_2_">
	<circle id="XMLID_110_" class="st1" cx="26.3" cy="29" r="22"/>
</g>
<g class="st2">
	<path class="st3" d="M20.4,36.3c-0.3-0.3-0.6-0.8-0.6-1.3c0-1,0.8-1.8,1.8-1.8c0.5,0,0.9,0.2,1.2,0.5c1,0.8,2,1.2,3.3,1.2
		c1.4,0,2.4-0.8,2.4-2v0c0-1.4-1.2-2.1-3.3-2.1h-0.6c-0.9,0-1.6-0.7-1.6-1.6c0-0.5,0.2-0.9,0.8-1.5l3.3-3.3h-5.2
		c-0.9,0-1.6-0.7-1.6-1.6c0-0.9,0.7-1.6,1.6-1.6h8.2c1.1,0,1.9,0.6,1.9,1.6c0,0.9-0.4,1.4-1.1,2.1L27.5,28c2.3,0.4,4.5,1.6,4.5,4.7
		v0c0,3.2-2.3,5.5-6,5.5C23.6,38.3,21.8,37.5,20.4,36.3z"/>
</g>
<g>
	<path class="st0" d="M100.8,64.4c-5.6-13.1-14.7-23-19.3-21.1c-7.8,3.2,4.5,18.5-33.7,34c-3.2,1.3-4.3,6.7-2.7,9.9
		c1.3,3.2,5.9,6.4,9.1,5.1c0.5-0.3,2.7-0.8,2.7-0.8c2.4,3.2,4.8,1.3,5.6,3.2c1.1,2.4,3.5,7.8,4,9.4c0.8,1.9,2.7,3.5,3.7,2.9
		c1.3-0.5,5.6-2.1,7.2-2.7s2.1-2.1,1.6-3.2c-0.5-1.3-2.7-1.6-3.5-3.2c-0.5-1.6-2.7-6.2-3.5-7.8c-0.8-2.1,0.8-3.7,3.5-4
		c17.4-1.9,20.6,8.8,26.8,6.4C107.4,90.8,106.4,77.7,100.8,64.4z M98.9,85.8c-1.1,0.5-7.8-5.1-12.3-15.2
		c-4.3-10.2-3.7-19.5-2.9-20.1c1.1-0.5,7.8,6.2,12,16.3C100.2,77.2,99.9,85.5,98.9,85.8z"/>
</g>
</svg>
