<?xml version="1.0" encoding="utf-8"?>
<!-- Generator: Adobe Illustrator 19.0.0, SVG Export Plug-In . SVG Version: 6.00 Build 0)  -->
<svg version="1.1" id="Layer_1" xmlns="http://www.w3.org/2000/svg" xmlns:xlink="http://www.w3.org/1999/xlink" x="0px" y="0px"
	 viewBox="0 0 150 150" style="enable-background:new 0 0 150 150;" xml:space="preserve">
<style type="text/css">
	.st0{fill:#005B7F;}
	.st1{fill:#FFB600;}
	.st2{enable-background:new    ;}
	.st3{fill:#FFFFFF;}
</style>
<g id="XMLID_1_">
	<path id="XMLID_107_" class="st0" d="M75,9c36.4,0,66,29.6,66,66s-29.6,66-66,66S9,111.4,9,75S38.6,9,75,9 M75,5
		C36.3,5,5,36.3,5,75s31.3,70,70,70s70-31.3,70-70S113.7,5,75,5L75,5z"/>
</g>
<g id="XMLID_2_">
	<circle id="XMLID_110_" class="st1" cx="26.3" cy="29" r="22"/>
</g>
<g class="st2">
	<path class="st3" d="M24.8,24.7L23.5,25c-0.2,0-0.5,0.1-0.6,0.1c-0.9,0-1.6-0.7-1.6-1.6c0-0.7,0.5-1.4,1.2-1.6l2.4-0.7
		c0.7-0.2,1.2-0.3,1.7-0.3h0c1,0,1.8,0.8,1.8,1.8v13.5c0,1-0.8,1.8-1.8,1.8c-1,0-1.8-0.8-1.8-1.8V24.7z"/>
</g>
<g id="XMLID_4_">
	<g id="XMLID_7_">
		<g id="XMLID_6_">
			<path id="XMLID_56_" class="st0" d="M95.2,112.5c-9.4,0-17-7.6-17-17s7.6-17,17-17s17,7.6,17,17S104.5,112.5,95.2,112.5z
				 M95.2,81.4c-7.8,0-14.1,6.3-14.1,14.1s6.3,14.1,14.1,14.1s14.1-6.3,14.1-14.1S103,81.4,95.2,81.4z"/>
		</g>
		<g id="XMLID_412_">
			<path id="XMLID_67_" class="st0" d="M91.9,97.1l-2.7-2.7c-0.4-0.4-0.9-0.4-1.3,0l-1.5,1.5c-0.4,0.4-0.4,0.9,0,1.3l3.3,3.3l2,2
				c0.4,0.4,0.9,0.4,1.3,0l2-2l8.9-8.9c0.4-0.4,0.4-0.9,0-1.3l-1.5-1.5c-0.4-0.4-0.9-0.4-1.3,0L93,96.9
				C92.8,97.4,92.3,97.4,91.9,97.1z"/>
		</g>
	</g>
	<path id="XMLID_55_" class="st0" d="M79.7,95.5c0-1,0.1-1.9,0.3-2.9H59c-1.3,0-2.3-1-2.3-2.3s1-2.3,2.3-2.3h22.6
		c2.6-4.8,7.7-8.1,13.6-8.1c1.8,0,3.6,0.3,5.2,0.9V46.1c0-1.3-1-2.3-2.3-2.3H50.9c-1.3,0-2.3,1-2.3,2.3v57.5c0,1.3,1,2.3,2.3,2.3
		h32.7C81.2,103.1,79.7,99.5,79.7,95.5z M58.9,57H90c1.3,0,2.3,1,2.3,2.3s-1,2.3-2.3,2.3H58.9c-1.3,0-2.3-1-2.3-2.3S57.7,57,58.9,57
		z M58.9,72.5H90c1.3,0,2.3,1,2.3,2.3s-1,2.3-2.3,2.3H58.9c-1.3,0-2.3-1-2.3-2.3S57.7,72.5,58.9,72.5z"/>
</g>
</svg>
