<?xml version="1.0" encoding="utf-8"?>
<!-- Generator: Adobe Illustrator 19.0.0, SVG Export Plug-In . SVG Version: 6.00 Build 0)  -->
<svg version="1.1" id="Layer_1" xmlns="http://www.w3.org/2000/svg" xmlns:xlink="http://www.w3.org/1999/xlink" x="0px" y="0px"
	 viewBox="0 0 50 50" style="enable-background:new 0 0 50 50;" xml:space="preserve">
<style type="text/css">
	.st0{fill:#005B7F;}
</style>
<g id="XMLID_2_">
	<path id="XMLID_15_" class="st0" d="M25,3.5c11.9,0,21.5,9.6,21.5,21.5S36.9,46.5,25,46.5S3.5,36.9,3.5,25S13.1,3.5,25,3.5 M25,1
		C11.7,1,1,11.7,1,25s10.7,24,24,24s24-10.7,24-24S38.3,1,25,1L25,1z"/>
</g>
<g>
	<path id="XMLID_9_" class="st0" d="M23.9,20.9c-0.1,0-0.2,0-0.3,0c-1.4,0.2-2.5,1.2-2.6,2.6c-0.1,1,0.3,2.1,1.1,2.7
		c0.1,0.1,0.2,0.2,0.2,0.3v0.8c0,0.5,0.4,0.9,0.9,0.9h1.5c0.5,0,0.9-0.4,0.9-0.9v-0.8c0-0.1,0.1-0.2,0.2-0.3
		c0.7-0.6,1.1-1.4,1.1-2.3C26.9,22.2,25.5,20.9,23.9,20.9z"/>
	<path class="st0" d="M35.1,27.3c-0.5-2.7-1.7-9.5-2.5-10.5c-1.4-2.3-4.2-3.8-7.4-3.8c-4.6,0-9.8,0.8-10.2,7.7
		c-0.4,6.7,1.5,8.1,2.8,9.3c0.5,0.5,0.8,1.2,0.8,1.9v4.5c0,0.3,0.3,0.6,0.6,0.6h7.4c0.3,0,0.6-0.3,0.6-0.6v-0.7c0-0.4,0.2-0.7,0.4-1
		c0.3-0.3,0.6-0.4,1-0.4c1.1,0,2.3,0,2.5,0c2.1-0.3,1.5-2.5,2-5.8h1.1c0.3,0,0.5-0.1,0.7-0.4C35.1,27.8,35.1,27.6,35.1,27.3z
		 M23.5,16.7c0-0.1,0.1-0.2,0.2-0.2H24c0.1,0,0.2,0.1,0.2,0.2V18c0,0.1-0.1,0.2-0.2,0.2h-0.3c-0.1,0-0.2-0.1-0.2-0.2V16.7z M19.7,18
		c0,0,0.1-0.1,0.2-0.1c0.1,0,0.1,0,0.2,0.1l0.7,0.7c0.1,0.1,0.1,0.2,0,0.3l-0.2,0.2c0,0-0.1,0.1-0.2,0.1c-0.1,0-0.1,0-0.2-0.1
		l-0.7-0.7c-0.1-0.1-0.1-0.2,0-0.3L19.7,18z M26.4,26.7v0.6c0,0.8-0.5,1.4-1.2,1.6v0.7c0,0.4-0.3,0.7-0.7,0.7h-1.3
		c-0.4,0-0.7-0.3-0.7-0.7v-0.7c-0.7-0.2-1.2-0.9-1.2-1.6v-0.6c-0.9-0.8-1.4-2-1.3-3.3c0.2-1.7,1.6-3.1,3.3-3.3
		c2.3-0.3,4.2,1.5,4.2,3.8C27.7,24.9,27.2,26,26.4,26.7z M27.6,19.2c0,0-0.1,0.1-0.2,0.1c-0.1,0-0.1,0-0.2-0.1L27,19
		c-0.1-0.1-0.1-0.2,0-0.3l0.7-0.7c0,0,0.1-0.1,0.2-0.1s0.1,0,0.2,0.1l0.2,0.2c0.1,0.1,0.1,0.2,0,0.3L27.6,19.2z"/>
</g>
</svg>
