<?xml version="1.0" encoding="utf-8"?>
<!-- Generator: Adobe Illustrator 19.0.0, SVG Export Plug-In . SVG Version: 6.00 Build 0)  -->
<svg version="1.1" id="Layer_1" xmlns="http://www.w3.org/2000/svg" xmlns:xlink="http://www.w3.org/1999/xlink" x="0px" y="0px"
	 viewBox="0 0 50 50" style="enable-background:new 0 0 50 50;" xml:space="preserve">
<style type="text/css">
	.st0{fill:#005B7F;}
</style>
<g id="XMLID_2_">
	<path id="XMLID_15_" class="st0" d="M25,3.5c11.9,0,21.5,9.6,21.5,21.5S36.9,46.5,25,46.5S3.5,36.9,3.5,25S13.1,3.5,25,3.5 M25,1
		C11.7,1,1,11.7,1,25s10.7,24,24,24s24-10.7,24-24S38.3,1,25,1L25,1z"/>
</g>
<g>
	<path class="st0" d="M34.6,21c-2.1-4.9-5.5-8.6-7.2-7.9c-2.9,1.2,1.7,6.9-12.6,12.7c-1.2,0.5-1.6,2.5-1,3.7
		c0.5,1.2,2.2,2.4,3.4,1.9c0.2-0.1,1-0.3,1-0.3c0.9,1.2,1.8,0.5,2.1,1.2c0.4,0.9,1.3,2.9,1.5,3.5c0.3,0.7,1,1.3,1.4,1.1
		c0.5-0.2,2.1-0.8,2.7-1c0.6-0.2,0.8-0.8,0.6-1.2c-0.2-0.5-1-0.6-1.3-1.2c-0.2-0.6-1-2.3-1.3-2.9c-0.3-0.8,0.3-1.4,1.3-1.5
		c6.5-0.7,7.7,3.3,10,2.4C37.1,30.9,36.7,26,34.6,21z M33.9,29c-0.4,0.2-2.9-1.9-4.6-5.7c-1.6-3.8-1.4-7.3-1.1-7.5
		c0.4-0.2,2.9,2.3,4.5,6.1C34.4,25.8,34.3,28.9,33.9,29z"/>
</g>
</svg>
