<?xml version="1.0" encoding="utf-8"?>
<!-- Generator: Adobe Illustrator 19.0.0, SVG Export Plug-In . SVG Version: 6.00 Build 0)  -->
<svg version="1.1" id="Layer_1" xmlns="http://www.w3.org/2000/svg" xmlns:xlink="http://www.w3.org/1999/xlink" x="0px" y="0px"
	 viewBox="0 0 150 150" style="enable-background:new 0 0 150 150;" xml:space="preserve">
<style type="text/css">
	.st0{fill:#005B7F;}
	.st1{fill:#FFB600;}
	.st2{enable-background:new    ;}
	.st3{fill:#FFFFFF;}
</style>
<g id="XMLID_1_">
	<path id="XMLID_107_" class="st0" d="M75,9c36.4,0,66,29.6,66,66s-29.6,66-66,66S9,111.4,9,75S38.6,9,75,9 M75,5
		C36.3,5,5,36.3,5,75s31.3,70,70,70s70-31.3,70-70S113.7,5,75,5L75,5z"/>
</g>
<g id="XMLID_2_">
	<circle id="XMLID_110_" class="st1" cx="26.3" cy="29" r="22"/>
</g>
<g class="st2">
	<path class="st3" d="M20.5,34.4l4.8-3.9c2.1-1.7,2.9-2.6,2.9-4c0-1.4-0.9-2.2-2.3-2.2c-1.1,0-1.8,0.5-2.7,1.5
		C23,26,22.5,26.2,22,26.2c-0.9,0-1.7-0.7-1.7-1.7c0-0.4,0.2-0.8,0.4-1.2c1.3-1.6,2.9-2.5,5.5-2.5c3.5,0,5.8,2,5.8,5.2v0
		c0,2.8-1.4,4.2-4.4,6.5l-2.7,2.1h5.9c0.9,0,1.6,0.7,1.6,1.6c0,0.9-0.7,1.6-1.6,1.6h-9.1c-1.2,0-2-0.6-2-1.8
		C19.6,35.5,19.9,34.9,20.5,34.4z"/>
</g>
<g>
	<path class="st0" d="M69.5,45.4L69.5,45.4c15.3,0,27.7,10,27.7,22.4S84.8,90.3,69.5,90.3c-1.5,0-2.9-0.1-4.3-0.3
		c-6,5.9-12.8,7-19.7,7.2v-1.5c3.7-1.8,6.7-5.1,6.7-8.9c0-0.5,0-1-0.1-1.5c-6.3-4.1-10.3-10.4-10.3-17.4
		C41.7,55.5,54.1,45.4,69.5,45.4z M99.3,95.7c0,3.2,2.1,6.1,5.3,7.6v1.2c-6-0.1-11.4-1-16.6-6.1c-1.2,0.2-2.5,0.2-3.7,0.2
		c-5.5,0-10.6-1.5-14.7-4c8.4,0,16.3-2.7,22.2-7.6c3-2.4,5.4-5.3,7.1-8.5c1.8-3.4,2.7-7,2.7-10.8c0-0.6,0-1.2-0.1-1.8
		c4.2,3.5,6.8,8.2,6.8,13.4c0,6-3.5,11.4-8.9,15C99.3,94.8,99.3,95.3,99.3,95.7z"/>
</g>
<g class="st2">
	<path class="st3" d="M54.2,71.6c-0.2-0.1-0.3-0.3-0.3-0.6c0-0.4,0.3-0.7,0.7-0.7c0.2,0,0.3,0.1,0.4,0.1c0.5,0.4,1.1,0.6,1.8,0.6
		c0.6,0,1-0.2,1-0.7v0c0-0.4-0.2-0.6-1.4-0.9c-1.4-0.4-2.3-0.8-2.3-2.1v0c0-1.3,1-2.1,2.4-2.1c0.8,0,1.6,0.2,2.2,0.6
		c0.2,0.1,0.3,0.3,0.3,0.6c0,0.4-0.3,0.7-0.7,0.7c-0.1,0-0.3,0-0.4-0.1c-0.5-0.3-1-0.5-1.5-0.5c-0.6,0-0.9,0.3-0.9,0.6v0
		c0,0.5,0.3,0.6,1.5,0.9c1.4,0.4,2.2,0.9,2.2,2.1v0c0,1.4-1.1,2.2-2.6,2.2C55.9,72.4,55,72.1,54.2,71.6z"/>
	<path class="st3" d="M62.2,66.7h-1.5c-0.4,0-0.7-0.3-0.7-0.7c0-0.4,0.3-0.7,0.7-0.7h4.5c0.4,0,0.7,0.3,0.7,0.7
		c0,0.4-0.3,0.7-0.7,0.7h-1.5v4.9c0,0.4-0.3,0.8-0.8,0.8s-0.8-0.3-0.8-0.8V66.7z"/>
	<path class="st3" d="M67,69.3V66c0-0.4,0.3-0.8,0.8-0.8s0.8,0.3,0.8,0.8v3.2c0,1.1,0.6,1.7,1.5,1.7s1.5-0.6,1.5-1.7V66
		c0-0.4,0.3-0.8,0.8-0.8s0.8,0.3,0.8,0.8v3.2c0,2.1-1.2,3.2-3.1,3.2S67,71.4,67,69.3z"/>
	<path class="st3" d="M74.6,66.1c0-0.4,0.3-0.8,0.8-0.8h3.9c0.4,0,0.7,0.3,0.7,0.7s-0.3,0.7-0.7,0.7h-3.1v1.5h2.7
		c0.4,0,0.7,0.3,0.7,0.7s-0.3,0.7-0.7,0.7h-2.7v2c0,0.4-0.3,0.8-0.8,0.8c-0.4,0-0.8-0.3-0.8-0.8V66.1z"/>
	<path class="st3" d="M81.2,66.1c0-0.4,0.3-0.8,0.8-0.8h3.9c0.4,0,0.7,0.3,0.7,0.7s-0.3,0.7-0.7,0.7h-3.1v1.5h2.7
		c0.4,0,0.7,0.3,0.7,0.7s-0.3,0.7-0.7,0.7h-2.7v2c0,0.4-0.3,0.8-0.8,0.8s-0.8-0.3-0.8-0.8V66.1z"/>
</g>
</svg>
