<?xml version="1.0" encoding="utf-8"?>
<!-- Generator: Adobe Illustrator 19.0.0, SVG Export Plug-In . SVG Version: 6.00 Build 0)  -->
<svg version="1.1" id="Layer_1" xmlns="http://www.w3.org/2000/svg" xmlns:xlink="http://www.w3.org/1999/xlink" x="0px" y="0px"
	 viewBox="0 0 320 320" style="enable-background:new 0 0 320 320;" xml:space="preserve">
<style type="text/css">
	.st0{fill:#00AEEF;}
	.st1{fill:none;stroke:#00AEEF;stroke-width:3;stroke-miterlimit:10;}
</style>
<g>
	<path id="XMLID_29_" class="st0" d="M171.9,187.4h-22.4c-1.7,0-3.1,1.4-3.1,3.1c0,1.7,1.4,3.1,3.1,3.1h22.4c1.7,0,3.1-1.4,3.1-3.1
		C175.1,188.9,173.7,187.4,171.9,187.4z"/>
	<path id="XMLID_28_" class="st0" d="M155,205.7c0.4,2.8,2.8,5,5.8,5c2.9,0,5.3-2.2,5.8-5c3.8-0.2,6.9-3.4,6.9-7.3h-25.3
		C148.1,202.4,151.1,205.5,155,205.7z"/>
	<path id="XMLID_24_" class="st0" d="M160.8,102.7c2.3,0,4.2-1.9,4.2-4.2v-9.7c0-2.3-1.9-4.2-4.2-4.2s-4.2,1.9-4.2,4.2v9.7
		C156.6,100.8,158.4,102.7,160.8,102.7z"/>
	<path id="XMLID_23_" class="st0" d="M133.3,108.8c0.8,1.1,2.1,1.7,3.4,1.7c0.8,0,1.7-0.3,2.5-0.8c1.9-1.4,2.3-4,0.9-5.8l-5.7-7.9
		c-1.4-1.9-4-2.3-5.8-0.9c-1.9,1.4-2.3,4-0.9,5.8L133.3,108.8z"/>
	<path id="XMLID_22_" class="st0" d="M188.2,170.1c-1.4-1.9-4-2.3-5.8-0.9c-1.9,1.4-2.3,4-0.9,5.8l5.7,7.9c0.8,1.1,2.1,1.7,3.4,1.7
		c0.9,0,1.7-0.3,2.5-0.8c1.9-1.4,2.3-4,0.9-5.8L188.2,170.1z"/>
	<path id="XMLID_20_" class="st0" d="M123.1,122.8l-9.3-3c-2.2-0.7-4.6,0.5-5.3,2.7c-0.7,2.2,0.5,4.6,2.7,5.3l9.3,3
		c0.4,0.1,0.9,0.2,1.3,0.2c1.8,0,3.4-1.1,4-2.9C126.5,125.9,125.3,123.5,123.1,122.8z"/>
	<path id="XMLID_19_" class="st0" d="M210.3,151.1l-9.3-3c-2.2-0.7-4.6,0.5-5.3,2.7s0.5,4.6,2.7,5.3l9.3,3c0.4,0.1,0.9,0.2,1.3,0.2
		c1.8,0,3.4-1.1,4-2.9C213.7,154.2,212.5,151.9,210.3,151.1z"/>
	<path id="XMLID_18_" class="st0" d="M120.5,148.1l-9.3,3c-2.2,0.7-3.4,3.1-2.7,5.3c0.6,1.8,2.2,2.9,4,2.9c0.4,0,0.9-0.1,1.3-0.2
		l9.3-3c2.2-0.7,3.4-3.1,2.7-5.3S122.7,147.4,120.5,148.1z"/>
	<path id="XMLID_17_" class="st0" d="M199.7,131c0.4,0,0.9-0.1,1.3-0.2l9.3-3c2.2-0.7,3.4-3.1,2.7-5.3c-0.7-2.2-3.1-3.4-5.3-2.7
		l-9.3,3c-2.2,0.7-3.4,3.1-2.7,5.3C196.3,129.9,197.9,131,199.7,131z"/>
	<path id="XMLID_16_" class="st0" d="M133.3,170.1l-5.7,7.9c-1.4,1.9-0.9,4.5,0.9,5.8c0.7,0.5,1.6,0.8,2.5,0.8
		c1.3,0,2.6-0.6,3.4-1.7l5.7-7.9c1.4-1.9,0.9-4.5-0.9-5.8C137.3,167.8,134.6,168.3,133.3,170.1z"/>
	<path id="XMLID_15_" class="st0" d="M187.2,96l-5.7,7.9c-1.4,1.9-0.9,4.5,0.9,5.8c0.7,0.5,1.6,0.8,2.5,0.8c1.3,0,2.6-0.6,3.4-1.7
		l5.7-7.9c1.4-1.9,0.9-4.5-0.9-5.8C191.1,93.7,188.5,94.1,187.2,96z"/>
	<path class="st0" d="M191,139.6c0-16.7-13.5-30.2-30.2-30.2s-30.2,13.5-30.2,30.2c0,7,2.4,13.5,6.5,18.6c3.5,4.5,6.9,9.4,9.8,14.4
		v10h27.7v-9.8c2.9-4.8,6.6-10.3,10-14.6C188.6,153.1,191,146.7,191,139.6z"/>
</g>
<rect id="XMLID_6_" x="55.2" y="7.5" class="st1" width="211.1" height="280.3"/>
</svg>
