<?xml version="1.0" encoding="utf-8"?>
<!-- Generator: Adobe Illustrator 19.0.0, SVG Export Plug-In . SVG Version: 6.00 Build 0)  -->
<svg version="1.1" id="Layer_1" xmlns="http://www.w3.org/2000/svg" xmlns:xlink="http://www.w3.org/1999/xlink" x="0px" y="0px"
	 viewBox="0 0 320 320" style="enable-background:new 0 0 320 320;" xml:space="preserve">
<style type="text/css">
	.st0{fill:#EF545C;}
</style>
<g>
	<g>
		<path class="st0" d="M266.3,287.8h-7.5c-0.8,0-1.5-0.7-1.5-1.5s0.7-1.5,1.5-1.5h4.5v-4.5c0-0.8,0.7-1.5,1.5-1.5s1.5,0.7,1.5,1.5
			V287.8z"/>
		<path class="st0" d="M247.2,287.8h-11.6c-0.8,0-1.5-0.7-1.5-1.5s0.7-1.5,1.5-1.5h11.6c0.8,0,1.5,0.7,1.5,1.5
			S248,287.8,247.2,287.8z M223.9,287.8h-11.6c-0.8,0-1.5-0.7-1.5-1.5s0.7-1.5,1.5-1.5h11.6c0.8,0,1.5,0.7,1.5,1.5
			S224.8,287.8,223.9,287.8z M200.7,287.8h-11.6c-0.8,0-1.5-0.7-1.5-1.5s0.7-1.5,1.5-1.5h11.6c0.8,0,1.5,0.7,1.5,1.5
			S201.5,287.8,200.7,287.8z M177.4,287.8h-11.6c-0.8,0-1.5-0.7-1.5-1.5s0.7-1.5,1.5-1.5h11.6c0.8,0,1.5,0.7,1.5,1.5
			S178.3,287.8,177.4,287.8z M154.2,287.8h-11.6c-0.8,0-1.5-0.7-1.5-1.5s0.7-1.5,1.5-1.5h11.6c0.8,0,1.5,0.7,1.5,1.5
			S155,287.8,154.2,287.8z M130.9,287.8h-11.6c-0.8,0-1.5-0.7-1.5-1.5s0.7-1.5,1.5-1.5h11.6c0.8,0,1.5,0.7,1.5,1.5
			S131.8,287.8,130.9,287.8z M107.7,287.8H96.1c-0.8,0-1.5-0.7-1.5-1.5s0.7-1.5,1.5-1.5h11.6c0.8,0,1.5,0.7,1.5,1.5
			S108.5,287.8,107.7,287.8z M84.4,287.8H72.8c-0.8,0-1.5-0.7-1.5-1.5s0.7-1.5,1.5-1.5h11.6c0.8,0,1.5,0.7,1.5,1.5
			S85.3,287.8,84.4,287.8z"/>
		<path class="st0" d="M61.2,287.8h-7.5v-7.5c0-0.8,0.7-1.5,1.5-1.5s1.5,0.7,1.5,1.5v4.5h4.5c0.8,0,1.5,0.7,1.5,1.5
			S62,287.8,61.2,287.8z"/>
		<path class="st0" d="M55.2,270.2c-0.8,0-1.5-0.7-1.5-1.5v-11.6c0-0.8,0.7-1.5,1.5-1.5s1.5,0.7,1.5,1.5v11.6
			C56.7,269.5,56,270.2,55.2,270.2z M55.2,247c-0.8,0-1.5-0.7-1.5-1.5v-11.6c0-0.8,0.7-1.5,1.5-1.5s1.5,0.7,1.5,1.5v11.6
			C56.7,246.3,56,247,55.2,247z M55.2,223.8c-0.8,0-1.5-0.7-1.5-1.5v-11.6c0-0.8,0.7-1.5,1.5-1.5s1.5,0.7,1.5,1.5v11.6
			C56.7,223.1,56,223.8,55.2,223.8z M55.2,200.6c-0.8,0-1.5-0.7-1.5-1.5v-11.6c0-0.8,0.7-1.5,1.5-1.5s1.5,0.7,1.5,1.5v11.6
			C56.7,199.9,56,200.6,55.2,200.6z M55.2,177.4c-0.8,0-1.5-0.7-1.5-1.5v-11.6c0-0.8,0.7-1.5,1.5-1.5s1.5,0.7,1.5,1.5v11.6
			C56.7,176.7,56,177.4,55.2,177.4z M55.2,154.2c-0.8,0-1.5-0.7-1.5-1.5v-11.6c0-0.8,0.7-1.5,1.5-1.5s1.5,0.7,1.5,1.5v11.6
			C56.7,153.5,56,154.2,55.2,154.2z M55.2,131c-0.8,0-1.5-0.7-1.5-1.5v-11.6c0-0.8,0.7-1.5,1.5-1.5s1.5,0.7,1.5,1.5v11.6
			C56.7,130.3,56,131,55.2,131z M55.2,107.8c-0.8,0-1.5-0.7-1.5-1.5V94.7c0-0.8,0.7-1.5,1.5-1.5s1.5,0.7,1.5,1.5v11.6
			C56.7,107.1,56,107.8,55.2,107.8z M55.2,84.6c-0.8,0-1.5-0.7-1.5-1.5V71.5c0-0.8,0.7-1.5,1.5-1.5s1.5,0.7,1.5,1.5v11.6
			C56.7,83.9,56,84.6,55.2,84.6z M55.2,61.4c-0.8,0-1.5-0.7-1.5-1.5V48.3c0-0.8,0.7-1.5,1.5-1.5s1.5,0.7,1.5,1.5v11.6
			C56.7,60.7,56,61.4,55.2,61.4z M55.2,38.2c-0.8,0-1.5-0.7-1.5-1.5V25.1c0-0.8,0.7-1.5,1.5-1.5s1.5,0.7,1.5,1.5v11.6
			C56.7,37.5,56,38.2,55.2,38.2z"/>
		<path class="st0" d="M55.2,15c-0.8,0-1.5-0.7-1.5-1.5V6h7.5c0.8,0,1.5,0.7,1.5,1.5S62,9,61.2,9h-4.5v4.5C56.7,14.3,56,15,55.2,15z
			"/>
		<path class="st0" d="M247.2,9h-11.6c-0.8,0-1.5-0.7-1.5-1.5s0.7-1.5,1.5-1.5h11.6c0.8,0,1.5,0.7,1.5,1.5S248,9,247.2,9z M223.9,9
			h-11.6c-0.8,0-1.5-0.7-1.5-1.5s0.7-1.5,1.5-1.5h11.6c0.8,0,1.5,0.7,1.5,1.5S224.8,9,223.9,9z M200.7,9h-11.6
			c-0.8,0-1.5-0.7-1.5-1.5s0.7-1.5,1.5-1.5h11.6c0.8,0,1.5,0.7,1.5,1.5S201.5,9,200.7,9z M177.4,9h-11.6c-0.8,0-1.5-0.7-1.5-1.5
			S165,6,165.8,6h11.6c0.8,0,1.5,0.7,1.5,1.5S178.3,9,177.4,9z M154.2,9h-11.6c-0.8,0-1.5-0.7-1.5-1.5s0.7-1.5,1.5-1.5h11.6
			c0.8,0,1.5,0.7,1.5,1.5S155,9,154.2,9z M130.9,9h-11.6c-0.8,0-1.5-0.7-1.5-1.5s0.7-1.5,1.5-1.5h11.6c0.8,0,1.5,0.7,1.5,1.5
			S131.8,9,130.9,9z M107.7,9H96.1c-0.8,0-1.5-0.7-1.5-1.5S95.2,6,96.1,6h11.6c0.8,0,1.5,0.7,1.5,1.5S108.5,9,107.7,9z M84.4,9H72.8
			c-0.8,0-1.5-0.7-1.5-1.5S72,6,72.8,6h11.6c0.8,0,1.5,0.7,1.5,1.5S85.3,9,84.4,9z"/>
		<path class="st0" d="M264.8,15c-0.8,0-1.5-0.7-1.5-1.5V9h-4.5c-0.8,0-1.5-0.7-1.5-1.5S258,6,258.8,6h7.5v7.5
			C266.3,14.3,265.6,15,264.8,15z"/>
		<path class="st0" d="M264.8,270.2c-0.8,0-1.5-0.7-1.5-1.5v-11.6c0-0.8,0.7-1.5,1.5-1.5s1.5,0.7,1.5,1.5v11.6
			C266.3,269.5,265.6,270.2,264.8,270.2z M264.8,247c-0.8,0-1.5-0.7-1.5-1.5v-11.6c0-0.8,0.7-1.5,1.5-1.5s1.5,0.7,1.5,1.5v11.6
			C266.3,246.3,265.6,247,264.8,247z M264.8,223.8c-0.8,0-1.5-0.7-1.5-1.5v-11.6c0-0.8,0.7-1.5,1.5-1.5s1.5,0.7,1.5,1.5v11.6
			C266.3,223.1,265.6,223.8,264.8,223.8z M264.8,200.6c-0.8,0-1.5-0.7-1.5-1.5v-11.6c0-0.8,0.7-1.5,1.5-1.5s1.5,0.7,1.5,1.5v11.6
			C266.3,199.9,265.6,200.6,264.8,200.6z M264.8,177.4c-0.8,0-1.5-0.7-1.5-1.5v-11.6c0-0.8,0.7-1.5,1.5-1.5s1.5,0.7,1.5,1.5v11.6
			C266.3,176.7,265.6,177.4,264.8,177.4z M264.8,154.2c-0.8,0-1.5-0.7-1.5-1.5v-11.6c0-0.8,0.7-1.5,1.5-1.5s1.5,0.7,1.5,1.5v11.6
			C266.3,153.5,265.6,154.2,264.8,154.2z M264.8,131c-0.8,0-1.5-0.7-1.5-1.5v-11.6c0-0.8,0.7-1.5,1.5-1.5s1.5,0.7,1.5,1.5v11.6
			C266.3,130.3,265.6,131,264.8,131z M264.8,107.8c-0.8,0-1.5-0.7-1.5-1.5V94.7c0-0.8,0.7-1.5,1.5-1.5s1.5,0.7,1.5,1.5v11.6
			C266.3,107.1,265.6,107.8,264.8,107.8z M264.8,84.6c-0.8,0-1.5-0.7-1.5-1.5V71.5c0-0.8,0.7-1.5,1.5-1.5s1.5,0.7,1.5,1.5v11.6
			C266.3,83.9,265.6,84.6,264.8,84.6z M264.8,61.4c-0.8,0-1.5-0.7-1.5-1.5V48.3c0-0.8,0.7-1.5,1.5-1.5s1.5,0.7,1.5,1.5v11.6
			C266.3,60.7,265.6,61.4,264.8,61.4z M264.8,38.2c-0.8,0-1.5-0.7-1.5-1.5V25.1c0-0.8,0.7-1.5,1.5-1.5s1.5,0.7,1.5,1.5v11.6
			C266.3,37.5,265.6,38.2,264.8,38.2z"/>
	</g>
	<path class="st0" d="M270.3,0h-11c-1.1,0-2,0.9-2,2v11c0,1.1,0.9,2,2,2h11c1.1,0,2-0.9,2-2V2C272.3,0.9,271.4,0,270.3,0z"/>
	<path class="st0" d="M60.7,0h-11c-1.1,0-2,0.9-2,2v11c0,1.1,0.9,2,2,2h11c1.1,0,2-0.9,2-2V2C62.7,0.9,61.8,0,60.7,0z"/>
	<path class="st0" d="M270.3,278.8h-11c-1.1,0-2,0.9-2,2v11c0,1.1,0.9,2,2,2h11c1.1,0,2-0.9,2-2v-11
		C272.3,279.7,271.4,278.8,270.3,278.8z"/>
	<path class="st0" d="M60.7,278.8h-11c-1.1,0-2,0.9-2,2v11c0,1.1,0.9,2,2,2h11c1.1,0,2-0.9,2-2v-11
		C62.7,279.7,61.8,278.8,60.7,278.8z"/>
	<g>
		<path class="st0" d="M178.3,152.9c0,0.7-0.6,1.6-1.3,1.7l-8.9,1.4c-0.5,1.5-1.1,2.9-1.8,4.4c1.6,2.3,3.3,4.4,5.2,6.6
			c0.2,0.3,0.4,0.7,0.4,1.1c0,0.4-0.1,0.8-0.4,1.1c-1.1,1.5-7.6,8.5-9.2,8.5c-0.5,0-0.9-0.2-1.2-0.4l-6.6-5.2
			c-1.4,0.7-2.9,1.3-4.4,1.8c-0.3,2.9-0.6,6.1-1.3,8.9c-0.2,0.8-0.9,1.4-1.7,1.4h-10.7c-0.8,0-1.6-0.6-1.7-1.4l-1.3-8.8
			c-1.5-0.5-2.9-1.1-4.3-1.8l-6.8,5.1c-0.3,0.3-0.7,0.4-1.1,0.4c-0.5,0-0.9-0.2-1.2-0.5c-1.5-1.4-8.2-7.5-8.2-9.2
			c0-0.4,0.2-0.7,0.4-1.1c1.7-2.2,3.4-4.3,5-6.5c-0.8-1.5-1.5-3.1-2-4.7l-8.7-1.4c-0.8-0.1-1.4-0.9-1.4-1.7V142
			c0-0.7,0.6-1.6,1.3-1.7l8.9-1.4c0.5-1.5,1.1-2.9,1.8-4.4c-1.6-2.3-3.3-4.4-5.2-6.6c-0.2-0.3-0.4-0.7-0.4-1.1s0.1-0.8,0.4-1.1
			c1.1-1.5,7.6-8.5,9.2-8.5c0.5,0,0.9,0.2,1.2,0.4l6.6,5.2c1.4-0.7,2.9-1.3,4.4-1.8c0.3-2.9,0.6-6,1.3-8.8c0.2-0.8,0.9-1.4,1.7-1.4
			H147c0.8,0,1.6,0.6,1.7,1.4l1.3,8.8c1.5,0.5,2.9,1.1,4.3,1.8l6.8-5.1c0.3-0.3,0.7-0.4,1.1-0.4c0.5,0,0.9,0.2,1.2,0.5
			c1.5,1.4,8.2,7.6,8.2,9.2c0,0.4-0.2,0.7-0.4,1.1c-1.7,2.2-3.4,4.3-5,6.5c0.7,1.5,1.4,3.1,1.9,4.7l8.7,1.3c0.8,0.2,1.4,0.9,1.4,1.7
			v10.6H178.3z M141.7,132.9c-8.1,0-14.7,6.6-14.7,14.7c0,8.1,6.6,14.7,14.7,14.7c8.1,0,14.7-6.6,14.7-14.7
			C156.3,139.5,149.7,132.9,141.7,132.9z M215,122.2c0,0.9-7.4,1.7-8.5,1.8c-0.5,1.1-1,2.1-1.7,3c0.5,1.1,2.9,6.9,2.9,7.9
			c0,0.2-0.1,0.3-0.2,0.4c-0.7,0.4-6.8,4.1-7.1,4.1c-0.7,0-5-5.7-5.6-6.6c-0.6,0.1-1.1,0.1-1.7,0.1c-0.6,0-1.1-0.1-1.7-0.1
			c-0.6,0.9-4.9,6.6-5.6,6.6c-0.3,0-6.4-3.7-7.1-4.1c-0.2-0.1-0.2-0.3-0.2-0.4c0-1,2.4-6.8,2.9-7.9c-0.7-0.9-1.3-1.9-1.7-3
			c-1.1-0.1-8.5-0.9-8.5-1.8v-8c0-0.9,7.4-1.7,8.5-1.8c0.5-1,1-2.1,1.7-3c-0.5-1.1-2.9-6.9-2.9-7.9c0-0.1,0.1-0.3,0.2-0.4
			c0.7-0.3,6.8-4,7.1-4c0.7,0,5,5.7,5.6,6.5c0.6-0.1,1.1-0.1,1.7-0.1c0.6,0,1.1,0.1,1.7,0.1c1.6-2.2,3.3-4.5,5.3-6.4l0.3-0.1
			c0.3,0,6.4,3.6,7.1,4c0.2,0.1,0.2,0.3,0.2,0.4c0,1-2.4,6.8-2.9,7.9c0.7,0.9,1.3,1.9,1.7,3c1.1,0.1,8.5,0.9,8.5,1.8V122.2z
			 M215,180.9c0,0.9-7.4,1.7-8.5,1.8c-0.5,1.1-1,2.1-1.7,3c0.5,1.1,2.9,6.9,2.9,7.9c0,0.2-0.1,0.3-0.2,0.4c-0.7,0.4-6.8,4.1-7.1,4.1
			c-0.7,0-5-5.7-5.6-6.6c-0.6,0.1-1.1,0.1-1.7,0.1c-0.6,0-1.1-0.1-1.7-0.1c-0.6,0.9-4.9,6.6-5.6,6.6c-0.3,0-6.4-3.7-7.1-4.1
			c-0.2-0.1-0.2-0.3-0.2-0.4c0-1,2.4-6.8,2.9-7.9c-0.7-0.9-1.3-1.9-1.7-3c-1.1-0.1-8.5-0.9-8.5-1.8v-8c0-0.9,7.4-1.7,8.5-1.8
			c0.5-1,1-2.1,1.7-3c-0.5-1.1-2.9-6.9-2.9-7.9c0-0.1,0.1-0.3,0.2-0.4c0.7-0.3,6.8-4,7.1-4c0.7,0,5,5.7,5.6,6.5
			c0.6-0.1,1.1-0.1,1.7-0.1c0.6,0,1.1,0.1,1.7,0.1c1.6-2.2,3.3-4.5,5.3-6.4l0.3-0.1c0.3,0,6.4,3.6,7.1,4c0.2,0.1,0.2,0.3,0.2,0.4
			c0,1-2.4,6.8-2.9,7.9c0.7,0.9,1.3,1.9,1.7,3c1.1,0.1,8.5,0.9,8.5,1.8V180.9z M193,110.9c-4,0-7.3,3.3-7.3,7.3
			c0,4.1,3.3,7.3,7.3,7.3c4.1,0,7.3-3.3,7.3-7.3C200.3,114.2,197,110.9,193,110.9z M193,169.6c-4,0-7.3,3.3-7.3,7.3
			c0,4.1,3.3,7.3,7.3,7.3c4.1,0,7.3-3.3,7.3-7.3S197,169.6,193,169.6z"/>
	</g>
</g>
</svg>
