<?xml version="1.0" encoding="utf-8"?>
<!-- Generator: Adobe Illustrator 19.0.0, SVG Export Plug-In . SVG Version: 6.00 Build 0)  -->
<svg version="1.1" id="Layer_1" xmlns="http://www.w3.org/2000/svg" xmlns:xlink="http://www.w3.org/1999/xlink" x="0px" y="0px"
	 viewBox="0 0 1280 720" style="enable-background:new 0 0 1280 720;" xml:space="preserve">
<style type="text/css">
	.st0{fill:#EF545C;}
	.st1{fill:#00ADEE;}
	.st2{fill:#FFF100;}
</style>
<g id="XMLID_1_">
	<path id="XMLID_30_" class="st0" d="M1075,623.8l-5.6-5.6c-0.7-0.7-1.9-0.7-2.6,0l-2.9,2.9c-0.7,0.7-0.7,1.9,0,2.6l6.9,6.9l4.2,4.2
		c0.7,0.7,1.9,0.7,2.6,0l4.2-4.2l18.5-18.5c0.7-0.7,0.7-1.9,0-2.6l-2.9-2.9c-0.7-0.7-1.9-0.7-2.6,0l-17.2,17.2
		C1076.8,624.5,1075.7,624.5,1075,623.8z"/>
	<path id="XMLID_29_" class="st0" d="M440.9,714.6l-2.1-2.1c-0.3-0.3-0.7-0.3-1,0l-1.1,1.1c-0.3,0.3-0.3,0.7,0,1l2.6,2.6l1.6,1.6
		c0.3,0.3,0.7,0.3,1,0l1.6-1.6l7.1-7.1c0.3-0.3,0.3-0.7,0-1l-1.1-1.1c-0.3-0.3-0.7-0.3-1,0l-6.6,6.6
		C441.6,714.9,441.1,714.9,440.9,714.6z"/>
	<path id="XMLID_28_" class="st0" d="M1053.5,721.6l-2.1-2.1c-0.3-0.3-0.7-0.3-1,0l-1.1,1.1c-0.3,0.3-0.3,0.7,0,1l2.6,2.6l1.6,1.6
		c0.3,0.3,0.7,0.3,1,0l1.6-1.6l7.1-7.1c0.3-0.3,0.3-0.7,0-1l-1.1-1.1c-0.3-0.3-0.7-0.3-1,0l-6.6,6.6
		C1054.2,721.9,1053.8,721.9,1053.5,721.6z"/>
	<path id="XMLID_27_" class="st0" d="M1242.9,457.3l-2.1-2.1c-0.3-0.3-0.7-0.3-1,0l-1.1,1.1c-0.3,0.3-0.3,0.7,0,1l2.6,2.6l1.6,1.6
		c0.3,0.3,0.7,0.3,1,0l1.6-1.6l7.1-7.1c0.3-0.3,0.3-0.7,0-1l-1.1-1.1c-0.3-0.3-0.7-0.3-1,0l-6.6,6.6
		C1243.6,457.5,1243.2,457.5,1242.9,457.3z"/>
	<path id="XMLID_26_" class="st0" d="M980.1,573.5l-4.2-4.2c-0.5-0.5-1.4-0.5-1.9,0l-2.2,2.2c-0.5,0.5-0.5,1.4,0,1.9l5.2,5.2
		l3.2,3.2c0.5,0.5,1.4,0.5,1.9,0l3.2-3.2l14-14c0.5-0.5,0.5-1.4,0-1.9l-2.2-2.2c-0.5-0.5-1.4-0.5-1.9,0l-13,13
		C981.5,574.1,980.7,574.1,980.1,573.5z"/>
	<path id="XMLID_25_" class="st1" d="M765,711l-5.6-5.6c-0.7-0.7-1.9-0.7-2.6,0l-2.9,2.9c-0.7,0.7-0.7,1.9,0,2.6l6.9,6.9l4.2,4.2
		c0.7,0.7,1.9,0.7,2.6,0l4.2-4.2l18.5-18.5c0.7-0.7,0.7-1.9,0-2.6l-2.9-2.9c-0.7-0.7-1.9-0.7-2.6,0L767.6,711
		C766.9,711.7,765.7,711.7,765,711z"/>
	<path id="XMLID_23_" class="st1" d="M1235,552.8l-5.6-5.6c-0.7-0.7-1.9-0.7-2.6,0l-2.9,2.9c-0.7,0.7-0.7,1.9,0,2.6l6.9,6.9l4.2,4.2
		c0.7,0.7,1.9,0.7,2.6,0l4.2-4.2l18.5-18.5c0.7-0.7,0.7-1.9,0-2.6l-2.9-2.9c-0.7-0.7-1.9-0.7-2.6,0l-17.2,17.2
		C1236.9,553.5,1235.7,553.5,1235,552.8z"/>
	<path id="XMLID_22_" class="st1" d="M1162.2,650.9l-5.6-5.6c-0.7-0.7-1.9-0.7-2.6,0l-2.9,2.9c-0.7,0.7-0.7,1.9,0,2.6l6.9,6.9
		l4.2,4.2c0.7,0.7,1.9,0.7,2.6,0l4.2-4.2l18.5-18.5c0.7-0.7,0.7-1.9,0-2.6l-2.9-2.9c-0.7-0.7-1.9-0.7-2.6,0l-17.2,17.2
		C1164,651.6,1162.9,651.6,1162.2,650.9z"/>
	<path id="XMLID_21_" class="st2" d="M908,665.3l-4.6-4.6c-0.6-0.6-1.5-0.6-2.1,0l-2.3,2.3c-0.6,0.6-0.6,1.5,0,2.1l5.6,5.6l3.4,3.4
		c0.6,0.6,1.5,0.6,2.1,0l3.4-3.4l15-15c0.6-0.6,0.6-1.5,0-2.1l-2.3-2.3c-0.6-0.6-1.5-0.6-2.1,0l-14,14
		C909.6,665.8,908.6,665.8,908,665.3z"/>
	<path id="XMLID_20_" class="st2" d="M560.3,695.8l-4.6-4.6c-0.6-0.6-1.5-0.6-2.1,0l-2.3,2.3c-0.6,0.6-0.6,1.5,0,2.1l5.6,5.6
		l3.4,3.4c0.6,0.6,1.5,0.6,2.1,0l3.4-3.4l15-15c0.6-0.6,0.6-1.5,0-2.1l-2.3-2.3c-0.6-0.6-1.5-0.6-2.1,0l-14,14
		C561.8,696.4,560.9,696.4,560.3,695.8z"/>
	<path id="XMLID_4_" class="st2" d="M1255.1,661.5l-4.6-4.6c-0.6-0.6-1.5-0.6-2.1,0l-2.3,2.3c-0.6,0.6-0.6,1.5,0,2.1l5.6,5.6
		l3.4,3.4c0.6,0.6,1.5,0.6,2.1,0l3.4-3.4l15-15c0.6-0.6,0.6-1.5,0-2.1l-2.3-2.3c-0.6-0.6-1.5-0.6-2.1,0l-14,14
		C1256.6,662.1,1255.6,662.1,1255.1,661.5z"/>
	<path id="XMLID_2_" class="st2" d="M1129.6,523.1l-4.6-4.6c-0.6-0.6-1.5-0.6-2.1,0l-2.3,2.3c-0.6,0.6-0.6,1.5,0,2.1l5.6,5.6
		l3.4,3.4c0.6,0.6,1.5,0.6,2.1,0l3.4-3.4l15-15c0.6-0.6,0.6-1.5,0-2.1l-2.3-2.3c-0.6-0.6-1.5-0.6-2.1,0l-14,14
		C1131.1,523.7,1130.2,523.7,1129.6,523.1z"/>
</g>
</svg>
