<?xml version="1.0" encoding="utf-8"?>
<!-- Generator: Adobe Illustrator 19.0.0, SVG Export Plug-In . SVG Version: 6.00 Build 0)  -->
<svg version="1.1" id="Layer_1" xmlns="http://www.w3.org/2000/svg" xmlns:xlink="http://www.w3.org/1999/xlink" x="0px" y="0px"
	 viewBox="0 0 172.9 124" style="enable-background:new 0 0 172.9 124;" xml:space="preserve">
<style type="text/css">
	.st0{fill:#FFFFFF;}
</style>
<g>
	<path class="st0" d="M168,123H5c-2.2,0-4-1.8-4-4V5c0-2.2,1.8-4,4-4h163c2.2,0,4,1.8,4,4v114C172,121.2,170.2,123,168,123z M5,3
		C3.9,3,3,3.9,3,5v114c0,1.1,0.9,2,2,2h163c1.1,0,2-0.9,2-2V5c0-1.1-0.9-2-2-2H5z"/>
	<g>
		<g>
			<path class="st0" d="M112.4,73.6c-0.7,0.8-1.4,1.3-2.2,1.6c-0.7,0.3-1.5,0.5-2.4,0.5c-1,0-1.9-0.2-2.5-0.7
				c-0.6-0.5-1.1-1.2-1.4-2c-0.3-0.9-0.4-2-0.4-3.3v-0.1h10.8l0-0.3c0-1.6-0.2-2.9-0.5-3.8c-0.3-1-0.7-1.8-1.2-2.5
				c-0.5-0.7-1.2-1.2-2-1.6c-0.8-0.4-1.9-0.6-3-0.6c-1.5,0-2.9,0.4-4,1.1c-1.2,0.7-2.1,1.8-2.7,3.1c-0.6,1.3-0.9,2.9-0.9,4.6
				c0,2.8,0.6,4.9,1.9,6.4c1.2,1.5,3.1,2.2,5.5,2.2c0.9,0,1.7-0.1,2.5-0.4c0.8-0.3,1.4-0.6,2.1-1c0.6-0.4,1.3-1.1,2-1.8l0.2-0.2
				l-1.4-1.5L112.4,73.6z M104.7,64.1c0.7-0.9,1.5-1.3,2.6-1.3c0.7,0,1.3,0.2,1.7,0.6c0.4,0.4,0.8,0.9,1,1.7
				c0.2,0.7,0.4,1.6,0.4,2.7h-6.9C103.7,66.1,104.1,64.9,104.7,64.1z"/>
		</g>
		<g>
			<path class="st0" d="M56.1,95.1c-1.3-1.5-3.2-2.2-5.7-2.2c-1.5,0-2.8,0.3-4,1c-1.2,0.7-2.1,1.7-2.8,3c-0.7,1.3-1,3-1,4.9
				c0,2.8,0.7,4.9,1.9,6.4c1.3,1.4,3.2,2.2,5.6,2.2c1.6,0,3-0.3,4.2-1c1.2-0.7,2.1-1.7,2.8-3c0.6-1.3,1-3,1-4.9
				C58,98.7,57.4,96.6,56.1,95.1z M54.1,104.4c-0.1,0.8-0.4,1.5-0.7,2.1c-0.3,0.6-0.7,1.1-1.2,1.4c-0.5,0.3-1.1,0.5-1.8,0.5
				c-1.3,0-2.3-0.6-3-1.8c-0.7-1.2-1.1-3-1.1-5.3c0-2.2,0.4-3.8,1.1-5c0.7-1.1,1.7-1.7,3-1.7c0.8,0,1.4,0.2,2,0.7
				c0.6,0.5,1.1,1.3,1.4,2.3c0.4,1.1,0.5,2.5,0.5,4.1C54.3,102.8,54.2,103.6,54.1,104.4z"/>
		</g>
		<g>
			<path class="st0" d="M23.4,77.5v-4h2.1l0.1,0.2c0.3,1,0.7,1.7,1.3,2.2c0.6,0.4,1.3,0.7,2.3,0.7c0.4,0,0.8,0,1.2-0.1
				c0.4-0.1,0.7-0.2,1-0.4c0.3-0.2,0.5-0.4,0.6-0.7c0.2-0.3,0.2-0.7,0.2-1.2c0-0.5-0.1-1-0.3-1.3c-0.2-0.3-0.5-0.6-1-0.9
				c-0.5-0.3-1.3-0.7-2.5-1.2c-1-0.4-1.9-0.9-2.5-1.3c-0.7-0.4-1.2-0.9-1.6-1.5c-0.4-0.6-0.6-1.3-0.6-2.1c0-1,0.3-1.9,0.8-2.6
				c0.5-0.7,1.3-1.3,2.3-1.7c1-0.4,2.1-0.6,3.5-0.6c0.8,0,1.5,0,2.2,0.1c0.7,0.1,1.6,0.2,2.7,0.4l0.2,0v3.9h-2.1l-0.1-0.2
				c-0.2-0.7-0.5-1.2-0.8-1.5c-0.3-0.4-0.7-0.6-1.1-0.8c-0.4-0.1-0.9-0.2-1.5-0.2c-0.9,0-1.5,0.2-2,0.6c-0.5,0.4-0.7,0.9-0.7,1.6
				c0,0.5,0.1,0.9,0.3,1.2c0.2,0.3,0.5,0.6,0.9,0.9c0.4,0.3,1.2,0.7,2.4,1.2c1.2,0.5,2.1,1,2.7,1.4c0.7,0.4,1.2,1,1.6,1.5
				c0.4,0.6,0.6,1.3,0.6,2.1c0,0.9-0.2,1.7-0.5,2.4c-0.3,0.7-0.8,1.2-1.4,1.6c-0.6,0.4-1.3,0.7-2.1,0.9c-0.8,0.2-1.7,0.3-2.6,0.3
				c-1,0-1.9-0.1-2.8-0.2c-0.9-0.1-1.8-0.3-2.7-0.6L23.4,77.5z"/>
		</g>
		<g>
			<path class="st0" d="M36.7,107.2c-0.6,0.6-1.1,1.1-1.6,1.5c-0.5,0.4-1,0.7-1.5,0.9c-0.5,0.2-1,0.4-1.6,0.5
				c-0.5,0.1-1.1,0.2-1.7,0.2c-2.2,0-4-0.8-5.1-2.2c-1.2-1.5-1.8-3.6-1.8-6.3c0-1.7,0.3-3.3,1-4.6c0.7-1.3,1.6-2.4,2.8-3.1
				c1.2-0.7,2.6-1.1,4.1-1.1c0.9,0,1.8,0.1,2.6,0.2c0.8,0.1,1.6,0.3,2.4,0.5l0.2,0.1v4H34l0-0.2c-0.2-0.7-0.4-1.3-0.7-1.7
				c-0.3-0.4-0.6-0.7-0.9-0.8c-0.3-0.2-0.8-0.2-1.3-0.2c-0.7,0-1.4,0.2-2,0.7c-0.6,0.5-1,1.2-1.4,2.2c-0.3,1-0.5,2.3-0.5,3.8
				c0,1,0.1,1.8,0.2,2.6c0.1,0.8,0.4,1.4,0.7,2c0.3,0.5,0.7,0.9,1.2,1.2c0.5,0.3,1.1,0.4,1.9,0.4c0.7,0,1.5-0.1,2.1-0.4
				c0.6-0.3,1.3-0.8,2-1.6l0.2-0.2l1.3,1.5L36.7,107.2z"/>
		</g>
		<g>
			<path class="st0" d="M40.4,62.1l0.2,0c0.5-0.1,1-0.2,1.3-0.4c0.3-0.2,0.6-0.5,0.7-0.8c0.2-0.3,0.3-0.8,0.4-1.3
				c0.1-0.5,0.2-1.3,0.4-2.3l0-0.2h2.9v4.2h5.5v2.2h-5.5v7.4c0,1.1,0,2,0.1,2.6c0.1,0.6,0.2,1.1,0.5,1.4c0.2,0.3,0.5,0.6,0.8,0.7
				c0.3,0.1,0.7,0.2,1.1,0.2c0.4,0,0.8-0.1,1.2-0.3c0.4-0.2,0.8-0.4,1.1-0.8l0.2-0.2l1.1,1.3L52.3,76c-0.8,0.8-1.6,1.4-2.4,1.8
				c-0.8,0.4-1.5,0.6-2.4,0.6c-1.5,0-2.7-0.5-3.5-1.4C43.3,76,43,74.6,43,72.6v-9.2h-2.5V62.1z"/>
		</g>
		<g>
			<path class="st0" d="M60.5,77.6c-0.7-0.4-1.3-1.1-1.6-2c-0.3-0.8-0.5-2-0.5-3.5v-6.5c0-0.9,0-1.6-0.1-1.9
				c-0.1-0.3-0.2-0.6-0.4-0.7c-0.1-0.1-0.4-0.3-1.3-0.5l-0.2,0v-1.3h5.4v8.9c0,1.3,0.1,2.3,0.2,3c0.1,0.7,0.2,1.2,0.4,1.5
				c0.2,0.3,0.4,0.6,0.8,0.8c0.3,0.2,0.8,0.3,1.4,0.3c0.4,0,0.8-0.1,1.1-0.2c0.4-0.2,0.8-0.4,1.3-0.9c0.5-0.4,0.8-0.8,1-1.2
				c0.2-0.4,0.3-0.8,0.3-1.4v-6.4c0-0.6,0-1.1,0-1.4c0-0.3-0.1-0.6-0.2-0.7c-0.1-0.2-0.2-0.3-0.2-0.4c-0.1-0.1-0.2-0.2-0.4-0.3
				c-0.2-0.1-0.5-0.2-0.9-0.3l-0.2,0v-1.3h5.4v11.9c0,0.9,0,1.5,0.1,1.9c0,0.4,0.1,0.6,0.2,0.8c0.1,0.2,0.2,0.3,0.4,0.5
				c0.2,0.1,0.6,0.3,1.2,0.4l0.2,0V78l-4.2,0.2h-1.3l0.1-2.8c-0.9,0.9-1.8,1.6-2.6,2.1c-0.9,0.5-1.8,0.7-2.7,0.7
				C62.1,78.3,61.2,78.1,60.5,77.6z"/>
		</g>
		<g>
			<path class="st0" d="M81,110l-4.2,0.2h-1.3l0.1-2.8c-0.9,0.9-1.8,1.6-2.6,2.1c-0.9,0.5-1.8,0.7-2.7,0.7c-1.1,0-2-0.2-2.7-0.7
				c-0.7-0.4-1.3-1.1-1.6-2c-0.3-0.8-0.5-2-0.5-3.5v-6.5c0-0.9,0-1.6-0.1-1.9c-0.1-0.3-0.2-0.6-0.4-0.7c-0.1-0.1-0.4-0.3-1.3-0.5
				l-0.2,0v-1.3H69v8.9c0,1.3,0.1,2.3,0.2,3c0.1,0.7,0.2,1.2,0.4,1.5c0.2,0.3,0.4,0.6,0.8,0.8c0.3,0.2,0.8,0.3,1.4,0.3
				c0.4,0,0.8-0.1,1.1-0.2c0.4-0.2,0.8-0.4,1.3-0.9c0.5-0.4,0.8-0.8,1-1.2c0.2-0.4,0.3-0.8,0.3-1.4v-6.4c0-0.6,0-1.1,0-1.4
				c0-0.3-0.1-0.6-0.2-0.7c-0.1-0.2-0.2-0.3-0.2-0.4c-0.1-0.1-0.2-0.2-0.4-0.3c-0.1-0.1-0.4-0.2-0.9-0.3l-0.2,0v-1.3h5.4v11.9
				c0,0.9,0,1.5,0.1,1.9c0,0.4,0.1,0.6,0.2,0.8c0.1,0.2,0.2,0.3,0.4,0.5c0.2,0.1,0.6,0.3,1.2,0.4l0.2,0V110z"/>
		</g>
		<g>
			<path class="st0" d="M104.3,110h-7.2v-1.3l0.2-0.1c0.4-0.1,0.7-0.2,0.9-0.3c0.2-0.1,0.3-0.2,0.4-0.4c0.1-0.2,0.2-0.4,0.3-0.7
				c0.1-0.4,0.1-0.9,0.1-1.7v-4.5c0-0.8,0-1.5-0.1-2.2c0-0.6-0.1-1.1-0.2-1.6c-0.1-0.4-0.2-0.7-0.4-0.9c-0.1-0.2-0.3-0.4-0.5-0.5
				c-0.2-0.1-0.4-0.3-0.7-0.4c-0.5-0.2-1.4-0.2-2.2,0.1c-0.4,0.2-0.8,0.5-1.3,0.9c-0.5,0.4-0.8,0.8-1,1.2c-0.2,0.4-0.3,0.8-0.3,1.3
				v6.4c0,1,0,1.6,0.1,2c0.1,0.3,0.2,0.6,0.4,0.7c0.2,0.2,0.6,0.3,1.2,0.5l0.2,0v1.3h-7.2v-1.3l0.2-0.1c0.4-0.1,0.7-0.2,0.9-0.3
				c0.2-0.1,0.3-0.2,0.4-0.4c0.1-0.2,0.2-0.4,0.3-0.7c0.1-0.4,0.1-0.9,0.1-1.7v-7.5c0-0.7,0-1.3,0-1.7c0-0.4-0.1-0.7-0.2-1
				c-0.1-0.2-0.3-0.4-0.5-0.5c-0.3-0.1-0.6-0.2-1.1-0.3l-0.2,0v-1.4l4.2-0.2h1.3l-0.2,2.7c0.8-0.8,1.4-1.3,1.9-1.6
				c0.5-0.4,1.1-0.7,1.6-0.9c1.1-0.4,2.5-0.4,3.5-0.1c0.5,0.2,1,0.4,1.4,0.7c0.4,0.3,0.7,0.7,1,1.2c0.3,0.5,0.4,1,0.6,1.7
				c0.1,0.6,0.2,1.4,0.2,2.4v6.4c0,0.8,0,1.3,0.1,1.7c0,0.3,0.1,0.6,0.2,0.7c0.1,0.2,0.2,0.3,0.4,0.4c0.2,0.1,0.6,0.3,1.1,0.4
				l0.2,0.1V110z"/>
		</g>
		<g>
			<path class="st0" d="M123,107.2c-0.6,0.6-1.1,1.2-1.6,1.5c-0.5,0.4-1,0.7-1.5,0.9c-0.5,0.2-1,0.4-1.6,0.5
				c-0.5,0.1-1.1,0.2-1.7,0.2c-2.2,0-4-0.8-5.1-2.2c-1.2-1.5-1.8-3.6-1.8-6.3c0-1.7,0.3-3.3,1-4.6c0.7-1.3,1.6-2.4,2.8-3.1
				c1.2-0.7,2.6-1.1,4.1-1.1c0.9,0,1.8,0.1,2.6,0.2c0.8,0.1,1.6,0.3,2.4,0.5l0.2,0.1v4h-2.6l0-0.2c-0.2-0.7-0.4-1.3-0.7-1.7
				c-0.3-0.4-0.6-0.7-0.9-0.8c-0.3-0.2-0.8-0.2-1.3-0.2c-0.7,0-1.4,0.2-2,0.7c-0.6,0.5-1,1.2-1.4,2.2c-0.3,1-0.5,2.3-0.5,3.8
				c0,1,0.1,1.8,0.2,2.6c0.1,0.8,0.4,1.4,0.7,2c0.3,0.5,0.7,0.9,1.2,1.2c0.5,0.3,1.1,0.4,1.9,0.4c0.7,0,1.5-0.1,2.1-0.4
				c0.6-0.3,1.3-0.8,2-1.6l0.2-0.2l1.3,1.5L123,107.2z"/>
		</g>
		<g>
			<path class="st0" d="M130.6,66.9c0-0.6-0.1-1.2-0.2-1.6c-0.1-0.4-0.2-0.7-0.4-0.9c-0.1-0.2-0.3-0.4-0.5-0.5
				c-0.2-0.2-0.4-0.3-0.7-0.4c-0.5-0.2-1.4-0.2-2.2,0.1c-0.4,0.2-0.8,0.5-1.3,0.9c-0.5,0.4-0.8,0.8-1,1.2c-0.2,0.4-0.3,0.8-0.3,1.3
				v6.4c0,1,0,1.6,0.1,2c0.1,0.3,0.2,0.6,0.4,0.7c0.2,0.2,0.6,0.3,1.2,0.5l0.2,0V78h-7.2v-1.3l0.2-0.1c0.4-0.1,0.7-0.2,0.9-0.3
				c0.2-0.1,0.3-0.2,0.4-0.4c0.1-0.2,0.2-0.4,0.3-0.7c0.1-0.4,0.1-0.9,0.1-1.7v-7.5c0-0.7,0-1.3,0-1.7c0-0.4-0.1-0.7-0.2-1
				c-0.1-0.2-0.3-0.4-0.5-0.5c-0.3-0.1-0.6-0.2-1.1-0.3l-0.2,0v-1.4l4.2-0.2h1.3l-0.2,2.7c0.8-0.7,1.4-1.3,1.9-1.6
				c0.5-0.4,1.1-0.7,1.6-0.9c1.1-0.4,2.5-0.4,3.5-0.1c0.5,0.2,1,0.4,1.4,0.7c0.4,0.3,0.7,0.7,1,1.2c0.3,0.5,0.4,1,0.6,1.7
				c0.1,0.6,0.2,1.4,0.2,2.4v6.4c0,0.8,0,1.3,0.1,1.7c0,0.3,0.1,0.6,0.2,0.7c0.1,0.2,0.2,0.3,0.4,0.4c0.2,0.1,0.6,0.3,1.1,0.4
				l0.2,0.1V78h-7.2v-1.3l0.2-0.1c0.4-0.1,0.7-0.2,0.9-0.3c0.2-0.1,0.3-0.2,0.4-0.4c0.1-0.2,0.2-0.4,0.3-0.7
				c0.1-0.4,0.1-0.9,0.1-1.7v-4.5C130.7,68.3,130.6,67.6,130.6,66.9z"/>
		</g>
		<g>
			<rect x="131" y="86.5" class="st0" width="3.6" height="3.8"/>
		</g>
		<g>
			<path class="st0" d="M136.4,110h-7.2v-1.3l0.2-0.1c0.4-0.1,0.7-0.2,0.9-0.3c0.2-0.1,0.3-0.2,0.4-0.4c0.1-0.2,0.2-0.4,0.3-0.7
				c0.1-0.4,0.1-0.9,0.1-1.7v-7.5c0-0.7,0-1.3,0-1.7c0-0.4-0.1-0.7-0.2-1c-0.1-0.2-0.3-0.4-0.5-0.5c-0.3-0.1-0.6-0.2-1.1-0.3l-0.2,0
				v-1.4l4.2-0.2h1.3v12.5c0,1,0,1.6,0.1,2c0.1,0.3,0.2,0.6,0.4,0.7c0.2,0.2,0.6,0.3,1.2,0.5l0.2,0V110z"/>
		</g>
		<g>
			<path class="st0" d="M149.9,110h-7.3v-1.3l0.2,0c0.7-0.2,1-0.3,1.1-0.4c0.2-0.1,0.3-0.3,0.4-0.5c0.1-0.2,0.1-0.5,0.2-0.8
				c0-0.4,0.1-0.9,0.1-1.5V91.2c0-1.1,0-1.8,0-2.3c0-0.4-0.1-0.8-0.1-1.1c-0.1-0.3-0.2-0.5-0.3-0.6c-0.1-0.1-0.3-0.2-0.4-0.3
				c-0.2-0.1-0.6-0.2-1.1-0.3l-0.2,0v-1.3l4.4-0.2h1.3v20.4c0,1,0,1.6,0.1,2c0.1,0.3,0.2,0.6,0.4,0.7c0.2,0.2,0.6,0.3,1.2,0.5l0.2,0
				V110z"/>
		</g>
		<g>
			<path class="st0" d="M151.4,76c-0.8,0.8-1.6,1.4-2.4,1.8c-0.8,0.4-1.5,0.6-2.4,0.6c-1.5,0-2.7-0.5-3.5-1.4
				c-0.8-0.9-1.1-2.3-1.1-4.3v-9.2h-2.5v-1.3l0.2,0c0.5-0.1,1-0.2,1.3-0.4c0.3-0.2,0.6-0.5,0.7-0.8c0.2-0.3,0.3-0.8,0.4-1.3
				c0.1-0.5,0.2-1.3,0.4-2.3l0-0.2h2.9v4.2h5.5v2.2h-5.5v7.4c0,1.1,0,2,0.1,2.6c0.1,0.6,0.2,1.1,0.5,1.4c0.2,0.3,0.5,0.6,0.8,0.7
				c0.3,0.1,0.7,0.2,1.1,0.2c0.4,0,0.8-0.1,1.2-0.3c0.4-0.2,0.8-0.4,1.1-0.8l0.2-0.2l1.1,1.3L151.4,76z"/>
		</g>
		<g>
			<path class="st0" d="M95.1,76.6c-0.6-0.1-1-0.2-1.2-0.4c-0.2-0.1-0.3-0.3-0.4-0.5c-0.1-0.2-0.2-0.5-0.2-0.8c0-0.4-0.1-1-0.1-1.9
				v-20H92l-4.4,0.2v1.3l0.2,0c0.6,0.1,0.9,0.2,1.1,0.3c0.2,0.1,0.3,0.2,0.4,0.3c0.1,0.1,0.2,0.4,0.3,0.6c0.1,0.3,0.1,0.6,0.1,1.1
				c0,0.4,0,1.2,0,2.3v2.3c-0.5-0.2-1.1-0.4-1.6-0.5c-0.6-0.1-1.3-0.2-2.1-0.2c-1.4,0-2.8,0.3-3.9,1c-1.2,0.7-2.1,1.7-2.8,3
				c-0.7,1.3-1,3-1,4.9c0,2.7,0.5,4.8,1.6,6.3c1.1,1.5,2.6,2.2,4.5,2.2c0.7,0,1.4-0.1,2-0.4c0.6-0.2,1.2-0.6,1.7-0.9
				c0.5-0.3,1.1-0.9,1.7-1.5l-0.2,2.7h1.3l4.3-0.2v-1.3L95.1,76.6z M89.8,71.5c0,0.5,0,1-0.1,1.3c-0.1,0.3-0.2,0.6-0.3,0.9
				c-0.1,0.3-0.4,0.5-0.7,0.9c-0.3,0.3-0.6,0.6-0.9,0.7c-0.3,0.2-0.6,0.3-0.9,0.4c-0.3,0.1-0.7,0.1-1.2,0.1c-1.2,0-2.1-0.5-2.6-1.6
				c-0.6-1.1-0.9-2.7-0.9-4.9c0-2.1,0.4-3.8,1.1-4.9c0.7-1.1,1.7-1.6,3.1-1.6c0.5,0,0.9,0.1,1.3,0.2c0.3,0.1,0.7,0.3,1,0.5
				c0.3,0.2,0.5,0.5,0.7,0.8c0.2,0.3,0.3,0.8,0.4,1.3c0.1,0.5,0.1,1.2,0.1,2.1V71.5z"/>
		</g>
	</g>
	<path class="st0" d="M29.4,23.6c0,0.5-0.1,0.9-0.4,1.2c-0.2,0.4-0.6,0.6-1.1,0.8c-0.5,0.2-1,0.3-1.6,0.3c-0.5,0-1,0-1.3-0.1
		c-0.4-0.1-0.7-0.2-1.1-0.4v-1.8c0.4,0.2,0.8,0.4,1.3,0.5c0.4,0.1,0.8,0.2,1.2,0.2c0.3,0,0.5-0.1,0.7-0.2c0.1-0.1,0.2-0.2,0.2-0.4
		c0-0.1,0-0.2-0.1-0.3c-0.1-0.1-0.2-0.2-0.3-0.2c-0.1-0.1-0.5-0.2-1-0.5c-0.5-0.2-0.9-0.4-1.2-0.6c-0.3-0.2-0.4-0.4-0.6-0.7
		c-0.1-0.3-0.2-0.6-0.2-1c0-0.7,0.3-1.2,0.8-1.6c0.5-0.4,1.2-0.6,2.2-0.6c0.8,0,1.6,0.2,2.5,0.5l-0.6,1.6c-0.7-0.3-1.4-0.5-1.9-0.5
		c-0.3,0-0.5,0-0.6,0.1c-0.1,0.1-0.2,0.2-0.2,0.3c0,0.1,0.1,0.3,0.2,0.4c0.2,0.1,0.6,0.3,1.3,0.6c0.7,0.3,1.1,0.6,1.4,0.9
		C29.3,22.6,29.4,23.1,29.4,23.6"/>
	<path class="st0" d="M38,18.4v4.5c0,1-0.3,1.7-0.9,2.3c-0.6,0.5-1.4,0.8-2.5,0.8c-1.1,0-1.9-0.3-2.5-0.8c-0.6-0.5-0.9-1.3-0.9-2.2
		v-4.5h2.1v4.4c0,0.5,0.1,0.9,0.3,1.1c0.2,0.2,0.5,0.4,0.9,0.4c0.4,0,0.7-0.1,0.9-0.4c0.2-0.2,0.3-0.6,0.3-1.2v-4.4H38z"/>
	<path class="st0" d="M47.8,25.8H45l-2.9-5.3h0c0.1,0.8,0.1,1.5,0.1,1.9v3.4h-1.9v-7.5h2.8l2.9,5.2h0c-0.1-0.8-0.1-1.4-0.1-1.8v-3.4
		h1.9V25.8z"/>
	<path class="st0" d="M58.6,25.8h-2.5l-0.8-3.2c0-0.1-0.1-0.4-0.2-0.8c-0.1-0.4-0.1-0.7-0.2-1c0,0.2-0.1,0.5-0.1,0.8
		c-0.1,0.3-0.1,0.6-0.2,0.9c-0.1,0.3-0.3,1.4-0.8,3.3h-2.5l-1.9-7.5h2l0.9,3.7c0.2,0.8,0.3,1.5,0.4,2c0-0.3,0.1-0.8,0.2-1.4
		c0.1-0.6,0.2-1.1,0.3-1.5l0.7-2.8h2l0.7,2.8c0.1,0.5,0.2,1,0.3,1.6c0.1,0.6,0.2,1,0.2,1.3c0-0.4,0.2-1,0.4-2l0.9-3.8h2L58.6,25.8z"
		/>
	<path class="st0" d="M66.7,25.8l-0.4-1.4h-2.6l-0.4,1.4h-2.3l2.6-7.5h2.8l2.6,7.5H66.7z M65.9,22.8l-0.3-1.2
		c-0.1-0.3-0.2-0.6-0.3-1.1c-0.1-0.4-0.2-0.7-0.2-0.9c0,0.2-0.1,0.5-0.2,0.9c-0.1,0.4-0.3,1.2-0.6,2.4H65.9z"/>
	<polygon class="st0" points="72.7,21.1 74.1,18.4 76.4,18.4 73.8,22.9 73.8,25.8 71.7,25.8 71.7,23 69.1,18.4 71.4,18.4 	"/>
	<path class="st0" d="M87.5,18.4v4.8c0,0.6-0.1,1-0.4,1.4c-0.2,0.4-0.6,0.7-1.1,1c-0.5,0.2-1,0.3-1.7,0.3c-1,0-1.7-0.2-2.3-0.7
		c-0.5-0.5-0.8-1.2-0.8-2v-4.8h1.3v4.7c0,0.6,0.1,1.1,0.5,1.4c0.3,0.3,0.8,0.4,1.4,0.4c1.2,0,1.8-0.6,1.8-1.8v-4.7H87.5z"/>
	<path class="st0" d="M96.6,25.8h-1.6l-3.9-5.9h0l0,0.3c0,0.6,0.1,1.2,0.1,1.7v3.9h-1.2v-7.5h1.6l3.9,5.9h0c0-0.1,0-0.4,0-0.9
		c0-0.5,0-0.9,0-1.1v-3.9h1.2V25.8z"/>
	<rect x="99.3" y="18.4" class="st0" width="1.3" height="7.5"/>
	<path class="st0" d="M107.8,18.4h1.3l-2.8,7.5h-1.4l-2.7-7.5h1.3l1.6,4.6c0.1,0.2,0.2,0.5,0.3,0.9c0.1,0.3,0.2,0.6,0.2,0.8
		c0-0.3,0.1-0.6,0.2-0.9c0.1-0.3,0.2-0.6,0.2-0.8L107.8,18.4z"/>
	<polygon class="st0" points="115.4,25.8 110.9,25.8 110.9,18.4 115.4,18.4 115.4,19.4 112.2,19.4 112.2,21.4 115.2,21.4 
		115.2,22.4 112.2,22.4 112.2,24.8 115.4,24.8 	"/>
	<path class="st0" d="M118.9,22.8v3h-1.3v-7.5h2.2c1,0,1.8,0.2,2.3,0.5c0.5,0.4,0.7,0.9,0.7,1.6c0,0.9-0.5,1.6-1.5,2l2.2,3.3H122
		l-1.9-3H118.9z M118.9,21.8h0.9c0.6,0,1-0.1,1.3-0.3c0.3-0.2,0.4-0.5,0.4-0.9c0-0.4-0.1-0.7-0.4-0.9c-0.3-0.2-0.7-0.3-1.3-0.3h-0.8
		V21.8z"/>
	<path class="st0" d="M130.1,23.8c0,0.7-0.3,1.2-0.8,1.6c-0.5,0.4-1.2,0.6-2.1,0.6c-0.9,0-1.6-0.1-2.2-0.4v-1.2
		c0.4,0.2,0.7,0.3,1.1,0.4c0.4,0.1,0.8,0.1,1.1,0.1c0.5,0,0.9-0.1,1.1-0.3c0.2-0.2,0.4-0.4,0.4-0.7c0-0.3-0.1-0.5-0.3-0.7
		c-0.2-0.2-0.7-0.4-1.4-0.7c-0.7-0.3-1.2-0.6-1.5-0.9c-0.3-0.4-0.4-0.8-0.4-1.3c0-0.6,0.2-1.1,0.7-1.5c0.5-0.4,1.1-0.5,1.9-0.5
		c0.8,0,1.5,0.2,2.2,0.5l-0.4,1c-0.7-0.3-1.3-0.4-1.9-0.4c-0.4,0-0.7,0.1-0.9,0.3c-0.2,0.2-0.3,0.4-0.3,0.7c0,0.2,0,0.4,0.1,0.5
		c0.1,0.1,0.2,0.3,0.4,0.4c0.2,0.1,0.5,0.3,1.1,0.5c0.6,0.2,1,0.4,1.3,0.6c0.3,0.2,0.5,0.4,0.6,0.7C130,23.2,130.1,23.5,130.1,23.8"
		/>
	<rect x="132.2" y="18.4" class="st0" width="1.3" height="7.5"/>
	<polygon class="st0" points="138.9,25.8 137.6,25.8 137.6,19.4 135.3,19.4 135.3,18.4 141.2,18.4 141.2,19.4 138.9,19.4 	"/>
	<polygon class="st0" points="145.8,21.8 147.7,18.4 149.1,18.4 146.4,22.9 146.4,25.8 145.2,25.8 145.2,23 142.5,18.4 143.9,18.4 	
		"/>
	<rect x="2" y="39.2" class="st0" width="169" height="2"/>
</g>
</svg>
