<?xml version="1.0" encoding="utf-8"?>
<!-- Generator: Adobe Illustrator 19.0.0, SVG Export Plug-In . SVG Version: 6.00 Build 0)  -->
<svg version="1.1" id="Layer_1" xmlns="http://www.w3.org/2000/svg" xmlns:xlink="http://www.w3.org/1999/xlink" x="0px" y="0px"
	 viewBox="0 0 50 50" style="enable-background:new 0 0 50 50;" xml:space="preserve">
<style type="text/css">
	.st0{fill:#005B7F;}
</style>
<g id="XMLID_2_">
	<path id="XMLID_15_" class="st0" d="M25,3.5c11.9,0,21.5,9.6,21.5,21.5S36.9,46.5,25,46.5S3.5,36.9,3.5,25S13.1,3.5,25,3.5 M25,1
		C11.7,1,1,11.7,1,25s10.7,24,24,24s24-10.7,24-24S38.3,1,25,1L25,1z"/>
</g>
<g>
	<path id="XMLID_1_" class="st0" d="M20.3,37.5c-1.7-3.5-0.8-5.5,0.5-7.3c1.4-2,1.8-4.1,1.8-4.1s1.1,1.4,0.7,3.7
		c1.9-2.2,2.3-5.6,2-6.9c4.4,3.1,6.3,9.7,3.7,14.7c13.5-7.6,3.4-19,1.6-20.3c0.6,1.3,0.7,3.5-0.5,4.5c-2-7.6-7-9.2-7-9.2
		c0.6,3.9-2.1,8.2-4.8,11.4c-0.1-1.6-0.2-2.6-1-4.1c-0.2,2.8-2.4,5.2-3,8C13.6,31.7,15,34.5,20.3,37.5z"/>
</g>
</svg>
