<?xml version="1.0" encoding="utf-8"?>
<!-- Generator: Adobe Illustrator 19.0.0, SVG Export Plug-In . SVG Version: 6.00 Build 0)  -->
<svg version="1.1" id="Layer_1" xmlns="http://www.w3.org/2000/svg" xmlns:xlink="http://www.w3.org/1999/xlink" x="0px" y="0px"
	 viewBox="0 0 320 442" style="enable-background:new 0 0 320 442;" xml:space="preserve">
<style type="text/css">
	.st0{fill:#EF545C;}
	.st1{fill:#FFF100;}
	.st2{fill:#00ADEE;}
</style>
<g id="XMLID_399_">
	<path id="XMLID_513_" class="st0" d="M74.1,27l-2-2c-0.3-0.3-0.7-0.3-0.9,0l-1,1c-0.3,0.3-0.3,0.7,0,0.9l2.5,2.5l1.5,1.5
		c0.3,0.3,0.7,0.3,0.9,0l1.5-1.5l6.7-6.7c0.3-0.3,0.3-0.7,0-0.9l-1-1c-0.3-0.3-0.7-0.3-0.9,0L75,27C74.8,27.3,74.3,27.3,74.1,27z"/>
	<path id="XMLID_512_" class="st0" d="M238.9,51.4l-2-2c-0.3-0.3-0.7-0.3-0.9,0l-1,1c-0.3,0.3-0.3,0.7,0,0.9l2.5,2.5l1.5,1.5
		c0.3,0.3,0.7,0.3,0.9,0l1.5-1.5l6.7-6.7c0.3-0.3,0.3-0.7,0-0.9l-1-1c-0.3-0.3-0.7-0.3-0.9,0l-6.2,6.2
		C239.6,51.7,239.2,51.7,238.9,51.4z"/>
	<path id="XMLID_511_" class="st0" d="M248.1,163.5l-2-2c-0.3-0.3-0.7-0.3-0.9,0l-1,1c-0.3,0.3-0.3,0.7,0,0.9l2.5,2.5l1.5,1.5
		c0.3,0.3,0.7,0.3,0.9,0l1.5-1.5l6.7-6.7c0.3-0.3,0.3-0.7,0-0.9l-1-1c-0.3-0.3-0.7-0.3-0.9,0l-6.2,6.2
		C248.7,163.7,248.3,163.7,248.1,163.5z"/>
	<path id="XMLID_510_" class="st0" d="M30,163.5l-2-2c-0.3-0.3-0.7-0.3-0.9,0l-1,1c-0.3,0.3-0.3,0.7,0,0.9l2.5,2.5l1.5,1.5
		c0.3,0.3,0.7,0.3,0.9,0l1.5-1.5l6.7-6.7c0.3-0.3,0.3-0.7,0-0.9l-1-1c-0.3-0.3-0.7-0.3-0.9,0l-6.2,6.2
		C30.6,163.7,30.2,163.7,30,163.5z"/>
	<path id="XMLID_509_" class="st0" d="M209.2,149.2l-1-1c-0.1-0.1-0.3-0.1-0.5,0l-0.5,0.5c-0.1,0.1-0.1,0.3,0,0.5l1.3,1.3l0.8,0.8
		c0.1,0.1,0.3,0.1,0.5,0l0.8-0.8l3.5-3.5c0.1-0.1,0.1-0.3,0-0.5l-0.5-0.5c-0.1-0.1-0.3-0.1-0.5,0l-3.2,3.2
		C209.5,149.3,209.3,149.3,209.2,149.2z"/>
	<path id="XMLID_508_" class="st0" d="M127.4,205.3l-1.8-1.8c-0.2-0.2-0.6-0.2-0.8,0l-0.9,0.9c-0.2,0.2-0.2,0.6,0,0.8l2.2,2.2
		l1.3,1.3c0.2,0.2,0.6,0.2,0.8,0l1.3-1.3l5.9-5.9c0.2-0.2,0.2-0.6,0-0.8l-0.9-0.9c-0.2-0.2-0.6-0.2-0.8,0l-5.5,5.5
		C128,205.6,127.6,205.6,127.4,205.3z"/>
	<path id="XMLID_507_" class="st0" d="M160.9,108.1l-1-1c-0.1-0.1-0.3-0.1-0.5,0l-0.5,0.5c-0.1,0.1-0.1,0.3,0,0.5l1.3,1.3l0.8,0.8
		c0.1,0.1,0.3,0.1,0.5,0l0.8-0.8l3.5-3.5c0.1-0.1,0.1-0.3,0-0.5l-0.5-0.5c-0.1-0.1-0.3-0.1-0.5,0l-3.2,3.2
		C161.2,108.2,161,108.2,160.9,108.1z"/>
	<path id="XMLID_506_" class="st0" d="M98.1,109.9l-0.8-0.8c-0.1-0.1-0.3-0.1-0.4,0l-0.4,0.4c-0.1,0.1-0.1,0.3,0,0.4l0.9,0.9
		l0.6,0.6c0.1,0.1,0.3,0.1,0.4,0l0.6-0.6l2.5-2.5c0.1-0.1,0.1-0.3,0-0.4l-0.4-0.4c-0.1-0.1-0.3-0.1-0.4,0l-2.4,2.4
		C98.4,110,98.2,110,98.1,109.9z"/>
	<path id="XMLID_503_" class="st1" d="M134.6,168l-0.8-0.8c-0.1-0.1-0.3-0.1-0.4,0l-0.4,0.4c-0.1,0.1-0.1,0.3,0,0.4l0.9,0.9l0.6,0.6
		c0.1,0.1,0.3,0.1,0.4,0l0.6-0.6l2.5-2.5c0.1-0.1,0.1-0.3,0-0.4l-0.4-0.4c-0.1-0.1-0.3-0.1-0.4,0L135,168
		C134.9,168.1,134.7,168.1,134.6,168z"/>
	<path id="XMLID_500_" class="st1" d="M27.4,209.4l-0.8-0.8c-0.1-0.1-0.3-0.1-0.4,0l-0.4,0.4c-0.1,0.1-0.1,0.3,0,0.4l0.9,0.9
		l0.6,0.6c0.1,0.1,0.3,0.1,0.4,0l0.6-0.6l2.5-2.5c0.1-0.1,0.1-0.3,0-0.4l-0.4-0.4c-0.1-0.1-0.3-0.1-0.4,0l-2.4,2.4
		C27.6,209.5,27.5,209.5,27.4,209.4z"/>
	<path id="XMLID_499_" class="st0" d="M296.9,193.2l-0.8-0.8c-0.1-0.1-0.3-0.1-0.4,0l-0.4,0.4c-0.1,0.1-0.1,0.3,0,0.4l0.9,0.9
		l0.6,0.6c0.1,0.1,0.3,0.1,0.4,0l0.6-0.6l2.5-2.5c0.1-0.1,0.1-0.3,0-0.4l-0.4-0.4c-0.1-0.1-0.3-0.1-0.4,0l-2.4,2.4
		C297.2,193.3,297,193.3,296.9,193.2z"/>
	<path id="XMLID_498_" class="st0" d="M10.2,84.2l-0.8-0.8c-0.1-0.1-0.3-0.1-0.4,0l-0.4,0.4c-0.1,0.1-0.1,0.3,0,0.4l0.9,0.9l0.6,0.6
		c0.1,0.1,0.3,0.1,0.4,0l0.6-0.6l2.5-2.5c0.1-0.1,0.1-0.3,0-0.4l-0.4-0.4c-0.1-0.1-0.3-0.1-0.4,0l-2.4,2.4
		C10.4,84.3,10.3,84.3,10.2,84.2z"/>
	<path id="XMLID_497_" class="st0" d="M231.2,84.2l-0.8-0.8c-0.1-0.1-0.3-0.1-0.4,0l-0.4,0.4c-0.1,0.1-0.1,0.3,0,0.4l0.9,0.9
		l0.6,0.6c0.1,0.1,0.3,0.1,0.4,0l0.6-0.6l2.5-2.5c0.1-0.1,0.1-0.3,0-0.4l-0.4-0.4c-0.1-0.1-0.3-0.1-0.4,0l-2.4,2.4
		C231.4,84.3,231.3,84.3,231.2,84.2z"/>
	<path id="XMLID_496_" class="st0" d="M236.3,212.5l-0.8-0.8c-0.1-0.1-0.3-0.1-0.4,0l-0.4,0.4c-0.1,0.1-0.1,0.3,0,0.4l0.9,0.9
		l0.6,0.6c0.1,0.1,0.3,0.1,0.4,0l0.6-0.6l2.5-2.5c0.1-0.1,0.1-0.3,0-0.4l-0.4-0.4c-0.1-0.1-0.3-0.1-0.4,0l-2.4,2.4
		C236.6,212.6,236.4,212.6,236.3,212.5z"/>
	<path id="XMLID_495_" class="st0" d="M188.3,32.3l-2-2c-0.3-0.3-0.7-0.3-0.9,0l-1,1c-0.3,0.3-0.3,0.7,0,0.9l2.5,2.5l1.5,1.5
		c0.3,0.3,0.7,0.3,0.9,0l1.5-1.5l6.7-6.7c0.3-0.3,0.3-0.7,0-0.9l-1-1c-0.3-0.3-0.7-0.3-0.9,0l-6.2,6.2
		C189,32.6,188.6,32.6,188.3,32.3z"/>
	<path id="XMLID_494_" class="st2" d="M127.1,82.9l-2-2c-0.3-0.3-0.7-0.3-0.9,0l-1,1c-0.3,0.3-0.3,0.7,0,0.9l2.5,2.5l1.5,1.5
		c0.3,0.3,0.7,0.3,0.9,0l1.5-1.5l6.7-6.7c0.3-0.3,0.3-0.7,0-0.9l-1-1c-0.3-0.3-0.7-0.3-0.9,0l-6.2,6.2
		C127.8,83.2,127.3,83.2,127.1,82.9z"/>
	<path id="XMLID_493_" class="st2" d="M296.6,25.9l-2-2c-0.3-0.3-0.7-0.3-0.9,0l-1,1c-0.3,0.3-0.3,0.7,0,0.9l2.5,2.5l1.5,1.5
		c0.3,0.3,0.7,0.3,0.9,0l1.5-1.5l6.7-6.7c0.3-0.3,0.3-0.7,0-0.9l-1-1c-0.3-0.3-0.7-0.3-0.9,0l-6.2,6.2
		C297.3,26.1,296.9,26.1,296.6,25.9z"/>
	<path id="XMLID_492_" class="st2" d="M99.1,150.2l-2-2c-0.3-0.3-0.7-0.3-0.9,0l-1,1c-0.3,0.3-0.3,0.7,0,0.9l2.5,2.5l1.5,1.5
		c0.3,0.3,0.7,0.3,0.9,0l1.5-1.5l6.7-6.7c0.3-0.3,0.3-0.7,0-0.9l-1-1c-0.3-0.3-0.7-0.3-0.9,0l-6.2,6.2
		C99.8,150.5,99.4,150.5,99.1,150.2z"/>
	<path id="XMLID_491_" class="st2" d="M266.2,100.2l-2-2c-0.3-0.3-0.7-0.3-0.9,0l-1,1c-0.3,0.3-0.3,0.7,0,0.9l2.5,2.5l1.5,1.5
		c0.3,0.3,0.7,0.3,0.9,0l1.5-1.5l6.7-6.7c0.3-0.3,0.3-0.7,0-0.9l-1-1c-0.3-0.3-0.7-0.3-0.9,0l-6.2,6.2
		C266.8,100.5,266.4,100.5,266.2,100.2z"/>
	<path id="XMLID_490_" class="st0" d="M39.3,17.4l-0.6-0.6c-0.1-0.1-0.2-0.1-0.3,0l-0.3,0.3c-0.1,0.1-0.1,0.2,0,0.3l0.7,0.7l0.4,0.4
		c0.1,0.1,0.2,0.1,0.3,0l0.4-0.4l2-2c0.1-0.1,0.1-0.2,0-0.3l-0.3-0.3c-0.1-0.1-0.2-0.1-0.3,0l-1.8,1.8
		C39.5,17.5,39.4,17.5,39.3,17.4z"/>
	<path id="XMLID_486_" class="st1" d="M16.5,46.2l-2-2c-0.3-0.3-0.7-0.3-0.9,0l-1,1c-0.3,0.3-0.3,0.7,0,0.9l2.5,2.5l1.5,1.5
		c0.3,0.3,0.7,0.3,0.9,0l1.5-1.5l6.7-6.7c0.3-0.3,0.3-0.7,0-0.9l-1-1c-0.3-0.3-0.7-0.3-0.9,0l-6.2,6.2
		C17.1,46.4,16.7,46.4,16.5,46.2z"/>
	<path id="XMLID_470_" class="st1" d="M55.9,137.1l-1.4-1.4c-0.2-0.2-0.5-0.2-0.6,0l-0.7,0.7c-0.2,0.2-0.2,0.5,0,0.6l1.7,1.7l1,1
		c0.2,0.2,0.5,0.2,0.6,0l1-1l4.6-4.6c0.2-0.2,0.2-0.5,0-0.6l-0.7-0.7c-0.2-0.2-0.5-0.2-0.6,0l-4.3,4.3
		C56.3,137.3,56,137.3,55.9,137.1z"/>
	<path id="XMLID_464_" class="st1" d="M195.8,205.1l-1.4-1.4c-0.2-0.2-0.5-0.2-0.6,0l-0.7,0.7c-0.2,0.2-0.2,0.5,0,0.6l1.7,1.7l1,1
		c0.2,0.2,0.5,0.2,0.6,0l1-1l4.6-4.6c0.2-0.2,0.2-0.5,0-0.6l-0.7-0.7c-0.2-0.2-0.5-0.2-0.6,0l-4.3,4.3
		C196.3,205.3,196,205.3,195.8,205.1z"/>
	<path id="XMLID_449_" class="st1" d="M178.7,73.6L177,72c-0.2-0.2-0.5-0.2-0.8,0l-0.8,0.8c-0.2,0.2-0.2,0.5,0,0.8l2,2l1.2,1.2
		c0.2,0.2,0.5,0.2,0.8,0l1.2-1.2l5.4-5.4c0.2-0.2,0.2-0.5,0-0.8l-0.8-0.8c-0.2-0.2-0.5-0.2-0.8,0l-5,5
		C179.2,73.8,178.9,73.8,178.7,73.6z"/>
	<path id="XMLID_444_" class="st1" d="M162.1,144.8l-1.6-1.6c-0.2-0.2-0.5-0.2-0.8,0l-0.8,0.8c-0.2,0.2-0.2,0.5,0,0.8l2,2l1.2,1.2
		c0.2,0.2,0.5,0.2,0.8,0l1.2-1.2l5.4-5.4c0.2-0.2,0.2-0.5,0-0.8l-0.8-0.8c-0.2-0.2-0.5-0.2-0.8,0l-5,5
		C162.6,145,162.3,145,162.1,144.8z"/>
	<path id="XMLID_439_" class="st1" d="M45.5,97.2l-1.6-1.6c-0.2-0.2-0.5-0.2-0.8,0l-0.8,0.8c-0.2,0.2-0.2,0.5,0,0.8l2,2l1.2,1.2
		c0.2,0.2,0.5,0.2,0.8,0l1.2-1.2l5.4-5.4c0.2-0.2,0.2-0.5,0-0.8L52,92.2c-0.2-0.2-0.5-0.2-0.8,0l-5,5C46,97.4,45.7,97.4,45.5,97.2z"
		/>
	<path id="XMLID_434_" class="st1" d="M303.9,65.1l-1.6-1.6c-0.2-0.2-0.5-0.2-0.8,0l-0.8,0.8c-0.2,0.2-0.2,0.5,0,0.8l2,2l1.2,1.2
		c0.2,0.2,0.5,0.2,0.8,0l1.2-1.2l5.4-5.4c0.2-0.2,0.2-0.5,0-0.8l-0.8-0.8c-0.2-0.2-0.5-0.2-0.8,0l-5,5
		C304.4,65.3,304.1,65.3,303.9,65.1z"/>
	<path id="XMLID_427_" class="st1" d="M258.6,15.2l-1.6-1.6c-0.2-0.2-0.5-0.2-0.8,0l-0.8,0.8c-0.2,0.2-0.2,0.5,0,0.8l2,2l1.2,1.2
		c0.2,0.2,0.5,0.2,0.8,0l1.2-1.2l5.4-5.4c0.2-0.2,0.2-0.5,0-0.8l-0.8-0.8c-0.2-0.2-0.5-0.2-0.8,0l-5,5
		C259.2,15.4,258.8,15.4,258.6,15.2z"/>
	<path id="XMLID_418_" class="st1" d="M123.9,39.2l-1.5-1.5c-0.2-0.2-0.5-0.2-0.7,0l-0.8,0.8c-0.2,0.2-0.2,0.5,0,0.7l1.8,1.8
		l1.1,1.1c0.2,0.2,0.5,0.2,0.7,0l1.1-1.1l4.9-4.9c0.2-0.2,0.2-0.5,0-0.7l-0.8-0.8c-0.2-0.2-0.5-0.2-0.7,0l-4.5,4.5
		C124.4,39.4,124.1,39.4,123.9,39.2z"/>
	<path id="XMLID_417_" class="st2" d="M207.9,103.8l-1.5-1.5c-0.2-0.2-0.5-0.2-0.7,0L205,103c-0.2,0.2-0.2,0.5,0,0.7l1.8,1.8
		l1.1,1.1c0.2,0.2,0.5,0.2,0.7,0l1.1-1.1l4.9-4.9c0.2-0.2,0.2-0.5,0-0.7l-0.8-0.8c-0.2-0.2-0.5-0.2-0.7,0l-4.5,4.5
		C208.4,103.9,208.1,103.9,207.9,103.8z"/>
	<path id="XMLID_412_" class="st2" d="M281.2,140.8l-1.5-1.5c-0.2-0.2-0.5-0.2-0.7,0l-0.8,0.8c-0.2,0.2-0.2,0.5,0,0.7l1.8,1.8
		l1.1,1.1c0.2,0.2,0.5,0.2,0.7,0l1.1-1.1l4.9-4.9c0.2-0.2,0.2-0.5,0-0.7l-0.8-0.8c-0.2-0.2-0.5-0.2-0.7,0l-4.5,4.5
		C281.7,141,281.4,141,281.2,140.8z"/>
	<path id="XMLID_408_" class="st2" d="M82,62.2l-1.1-1.1c-0.1-0.1-0.4-0.1-0.5,0l-0.6,0.6c-0.1,0.1-0.1,0.4,0,0.5l1.3,1.3l0.8,0.8
		c0.1,0.1,0.4,0.1,0.5,0l0.8-0.8l3.6-3.6c0.1-0.1,0.1-0.4,0-0.5l-0.6-0.6c-0.1-0.1-0.4-0.1-0.5,0l-3.3,3.3
		C82.4,62.4,82.2,62.4,82,62.2z"/>
	<path id="XMLID_403_" class="st2" d="M180.9,185.4l-1.6-1.6c-0.2-0.2-0.5-0.2-0.7,0l-0.8,0.8c-0.2,0.2-0.2,0.5,0,0.7l2,2l1.2,1.2
		c0.2,0.2,0.5,0.2,0.7,0l1.2-1.2l5.2-5.2c0.2-0.2,0.2-0.5,0-0.7l-0.8-0.8c-0.2-0.2-0.5-0.2-0.7,0l-4.9,4.9
		C181.4,185.6,181.1,185.6,180.9,185.4z"/>
	<path id="XMLID_401_" class="st2" d="M74.8,190.6l-1.1-1.1c-0.1-0.1-0.4-0.1-0.5,0l-0.6,0.6c-0.1,0.1-0.1,0.4,0,0.5l1.3,1.3
		l0.8,0.8c0.1,0.1,0.4,0.1,0.5,0l0.8-0.8l3.6-3.6c0.1-0.1,0.1-0.4,0-0.5l-0.6-0.6c-0.1-0.1-0.4-0.1-0.5,0l-3.3,3.3
		C75.2,190.7,75,190.7,74.8,190.6z"/>
</g>
<g id="XMLID_2_">
	<path id="XMLID_80_" class="st0" d="M74.1,243.2l-2-2c-0.3-0.3-0.7-0.3-0.9,0l-1,1c-0.3,0.3-0.3,0.7,0,0.9l2.5,2.5l1.5,1.5
		c0.3,0.3,0.7,0.3,0.9,0l1.5-1.5l6.7-6.7c0.3-0.3,0.3-0.7,0-0.9l-1-1c-0.3-0.3-0.7-0.3-0.9,0l-6.2,6.2
		C74.8,243.4,74.3,243.4,74.1,243.2z"/>
	<path id="XMLID_79_" class="st0" d="M238.9,267.6l-2-2c-0.3-0.3-0.7-0.3-0.9,0l-1,1c-0.3,0.3-0.3,0.7,0,0.9l2.5,2.5l1.5,1.5
		c0.3,0.3,0.7,0.3,0.9,0l1.5-1.5l6.7-6.7c0.3-0.3,0.3-0.7,0-0.9l-1-1c-0.3-0.3-0.7-0.3-0.9,0l-6.2,6.2
		C239.6,267.8,239.2,267.8,238.9,267.6z"/>
	<path id="XMLID_78_" class="st0" d="M248.1,379.6l-2-2c-0.3-0.3-0.7-0.3-0.9,0l-1,1c-0.3,0.3-0.3,0.7,0,0.9l2.5,2.5l1.5,1.5
		c0.3,0.3,0.7,0.3,0.9,0l1.5-1.5l6.7-6.7c0.3-0.3,0.3-0.7,0-0.9l-1-1c-0.3-0.3-0.7-0.3-0.9,0l-6.2,6.2
		C248.7,379.8,248.3,379.8,248.1,379.6z"/>
	<path id="XMLID_77_" class="st0" d="M30,379.6l-2-2c-0.3-0.3-0.7-0.3-0.9,0l-1,1c-0.3,0.3-0.3,0.7,0,0.9l2.5,2.5l1.5,1.5
		c0.3,0.3,0.7,0.3,0.9,0l1.5-1.5l6.7-6.7c0.3-0.3,0.3-0.7,0-0.9l-1-1c-0.3-0.3-0.7-0.3-0.9,0l-6.2,6.2
		C30.6,379.8,30.2,379.8,30,379.6z"/>
	<path id="XMLID_76_" class="st0" d="M209.2,365.3l-1-1c-0.1-0.1-0.3-0.1-0.5,0l-0.5,0.5c-0.1,0.1-0.1,0.3,0,0.5l1.3,1.3l0.8,0.8
		c0.1,0.1,0.3,0.1,0.5,0l0.8-0.8l3.5-3.5c0.1-0.1,0.1-0.3,0-0.5l-0.5-0.5c-0.1-0.1-0.3-0.1-0.5,0l-3.2,3.2
		C209.5,365.4,209.3,365.4,209.2,365.3z"/>
	<path id="XMLID_75_" class="st0" d="M127.4,421.5l-1.8-1.8c-0.2-0.2-0.6-0.2-0.8,0l-0.9,0.9c-0.2,0.2-0.2,0.6,0,0.8l2.2,2.2
		l1.3,1.3c0.2,0.2,0.6,0.2,0.8,0l1.3-1.3l5.9-5.9c0.2-0.2,0.2-0.6,0-0.8l-0.9-0.9c-0.2-0.2-0.6-0.2-0.8,0l-5.5,5.5
		C128,421.7,127.6,421.7,127.4,421.5z"/>
	<path id="XMLID_74_" class="st0" d="M160.9,324.2l-1-1c-0.1-0.1-0.3-0.1-0.5,0l-0.5,0.5c-0.1,0.1-0.1,0.3,0,0.5l1.3,1.3l0.8,0.8
		c0.1,0.1,0.3,0.1,0.5,0l0.8-0.8l3.5-3.5c0.1-0.1,0.1-0.3,0-0.5L165,321c-0.1-0.1-0.3-0.1-0.5,0l-3.2,3.2
		C161.2,324.3,161,324.3,160.9,324.2z"/>
	<path id="XMLID_73_" class="st0" d="M98.1,326l-0.8-0.8c-0.1-0.1-0.3-0.1-0.4,0l-0.4,0.4c-0.1,0.1-0.1,0.3,0,0.4l0.9,0.9l0.6,0.6
		c0.1,0.1,0.3,0.1,0.4,0l0.6-0.6l2.5-2.5c0.1-0.1,0.1-0.3,0-0.4l-0.4-0.4c-0.1-0.1-0.3-0.1-0.4,0l-2.4,2.4
		C98.4,326.1,98.2,326.1,98.1,326z"/>
	<path id="XMLID_70_" class="st1" d="M134.6,384.1l-0.8-0.8c-0.1-0.1-0.3-0.1-0.4,0l-0.4,0.4c-0.1,0.1-0.1,0.3,0,0.4l0.9,0.9
		l0.6,0.6c0.1,0.1,0.3,0.1,0.4,0l0.6-0.6l2.5-2.5c0.1-0.1,0.1-0.3,0-0.4l-0.4-0.4c-0.1-0.1-0.3-0.1-0.4,0l-2.4,2.4
		C134.9,384.2,134.7,384.2,134.6,384.1z"/>
	<path id="XMLID_67_" class="st1" d="M27.4,425.5l-0.8-0.8c-0.1-0.1-0.3-0.1-0.4,0l-0.4,0.4c-0.1,0.1-0.1,0.3,0,0.4l0.9,0.9l0.6,0.6
		c0.1,0.1,0.3,0.1,0.4,0l0.6-0.6l2.5-2.5c0.1-0.1,0.1-0.3,0-0.4l-0.4-0.4c-0.1-0.1-0.3-0.1-0.4,0l-2.4,2.4
		C27.6,425.6,27.5,425.6,27.4,425.5z"/>
	<path id="XMLID_66_" class="st0" d="M296.9,409.3l-0.8-0.8c-0.1-0.1-0.3-0.1-0.4,0l-0.4,0.4c-0.1,0.1-0.1,0.3,0,0.4l0.9,0.9
		l0.6,0.6c0.1,0.1,0.3,0.1,0.4,0l0.6-0.6l2.5-2.5c0.1-0.1,0.1-0.3,0-0.4L300,407c-0.1-0.1-0.3-0.1-0.4,0l-2.4,2.4
		C297.2,409.4,297,409.4,296.9,409.3z"/>
	<path id="XMLID_65_" class="st0" d="M10.2,300.3l-0.8-0.8c-0.1-0.1-0.3-0.1-0.4,0L8.6,300c-0.1,0.1-0.1,0.3,0,0.4l0.9,0.9l0.6,0.6
		c0.1,0.1,0.3,0.1,0.4,0l0.6-0.6l2.5-2.5c0.1-0.1,0.1-0.3,0-0.4l-0.4-0.4c-0.1-0.1-0.3-0.1-0.4,0l-2.4,2.4
		C10.4,300.4,10.3,300.4,10.2,300.3z"/>
	<path id="XMLID_64_" class="st0" d="M231.2,300.3l-0.8-0.8c-0.1-0.1-0.3-0.1-0.4,0l-0.4,0.4c-0.1,0.1-0.1,0.3,0,0.4l0.9,0.9
		l0.6,0.6c0.1,0.1,0.3,0.1,0.4,0l0.6-0.6l2.5-2.5c0.1-0.1,0.1-0.3,0-0.4l-0.4-0.4c-0.1-0.1-0.3-0.1-0.4,0l-2.4,2.4
		C231.4,300.4,231.3,300.4,231.2,300.3z"/>
	<path id="XMLID_63_" class="st0" d="M236.3,428.6l-0.8-0.8c-0.1-0.1-0.3-0.1-0.4,0l-0.4,0.4c-0.1,0.1-0.1,0.3,0,0.4l0.9,0.9
		l0.6,0.6c0.1,0.1,0.3,0.1,0.4,0l0.6-0.6l2.5-2.5c0.1-0.1,0.1-0.3,0-0.4l-0.4-0.4c-0.1-0.1-0.3-0.1-0.4,0l-2.4,2.4
		C236.6,428.7,236.4,428.7,236.3,428.6z"/>
	<path id="XMLID_62_" class="st0" d="M188.3,248.4l-2-2c-0.3-0.3-0.7-0.3-0.9,0l-1,1c-0.3,0.3-0.3,0.7,0,0.9l2.5,2.5l1.5,1.5
		c0.3,0.3,0.7,0.3,0.9,0l1.5-1.5l6.7-6.7c0.3-0.3,0.3-0.7,0-0.9l-1-1c-0.3-0.3-0.7-0.3-0.9,0l-6.2,6.2
		C189,248.7,188.6,248.7,188.3,248.4z"/>
	<path id="XMLID_61_" class="st2" d="M127.1,299l-2-2c-0.3-0.3-0.7-0.3-0.9,0l-1,1c-0.3,0.3-0.3,0.7,0,0.9l2.5,2.5l1.5,1.5
		c0.3,0.3,0.7,0.3,0.9,0l1.5-1.5l6.7-6.7c0.3-0.3,0.3-0.7,0-0.9l-1-1c-0.3-0.3-0.7-0.3-0.9,0L128,299
		C127.8,299.3,127.3,299.3,127.1,299z"/>
	<path id="XMLID_60_" class="st2" d="M296.6,242l-2-2c-0.3-0.3-0.7-0.3-0.9,0l-1,1c-0.3,0.3-0.3,0.7,0,0.9l2.5,2.5l1.5,1.5
		c0.3,0.3,0.7,0.3,0.9,0l1.5-1.5l6.7-6.7c0.3-0.3,0.3-0.7,0-0.9l-1-1c-0.3-0.3-0.7-0.3-0.9,0l-6.2,6.2
		C297.3,242.2,296.9,242.2,296.6,242z"/>
	<path id="XMLID_59_" class="st2" d="M99.1,366.4l-2-2c-0.3-0.3-0.7-0.3-0.9,0l-1,1c-0.3,0.3-0.3,0.7,0,0.9l2.5,2.5l1.5,1.5
		c0.3,0.3,0.7,0.3,0.9,0l1.5-1.5l6.7-6.7c0.3-0.3,0.3-0.7,0-0.9l-1-1c-0.3-0.3-0.7-0.3-0.9,0l-6.2,6.2
		C99.8,366.6,99.4,366.6,99.1,366.4z"/>
	<path id="XMLID_58_" class="st2" d="M266.2,316.3l-2-2c-0.3-0.3-0.7-0.3-0.9,0l-1,1c-0.3,0.3-0.3,0.7,0,0.9l2.5,2.5l1.5,1.5
		c0.3,0.3,0.7,0.3,0.9,0l1.5-1.5l6.7-6.7c0.3-0.3,0.3-0.7,0-0.9l-1-1c-0.3-0.3-0.7-0.3-0.9,0l-6.2,6.2
		C266.8,316.6,266.4,316.6,266.2,316.3z"/>
	<path id="XMLID_57_" class="st0" d="M39.3,233.5l-0.6-0.6c-0.1-0.1-0.2-0.1-0.3,0l-0.3,0.3c-0.1,0.1-0.1,0.2,0,0.3l0.7,0.7l0.4,0.4
		c0.1,0.1,0.2,0.1,0.3,0l0.4-0.4l2-2c0.1-0.1,0.1-0.2,0-0.3l-0.3-0.3c-0.1-0.1-0.2-0.1-0.3,0l-1.8,1.8
		C39.5,233.6,39.4,233.6,39.3,233.5z"/>
	<path id="XMLID_54_" class="st1" d="M16.5,262.3l-2-2c-0.3-0.3-0.7-0.3-0.9,0l-1,1c-0.3,0.3-0.3,0.7,0,0.9l2.5,2.5l1.5,1.5
		c0.3,0.3,0.7,0.3,0.9,0l1.5-1.5l6.7-6.7c0.3-0.3,0.3-0.7,0-0.9l-1-1c-0.3-0.3-0.7-0.3-0.9,0l-6.2,6.2
		C17.1,262.5,16.7,262.5,16.5,262.3z"/>
	<path id="XMLID_51_" class="st1" d="M55.9,353.3l-1.4-1.4c-0.2-0.2-0.5-0.2-0.6,0l-0.7,0.7c-0.2,0.2-0.2,0.5,0,0.6l1.7,1.7l1,1
		c0.2,0.2,0.5,0.2,0.6,0l1-1l4.6-4.6c0.2-0.2,0.2-0.5,0-0.6l-0.7-0.7c-0.2-0.2-0.5-0.2-0.6,0l-4.3,4.3
		C56.3,353.4,56,353.4,55.9,353.3z"/>
	<path id="XMLID_48_" class="st1" d="M195.8,421.2l-1.4-1.4c-0.2-0.2-0.5-0.2-0.6,0l-0.7,0.7c-0.2,0.2-0.2,0.5,0,0.6l1.7,1.7l1,1
		c0.2,0.2,0.5,0.2,0.6,0l1-1l4.6-4.6c0.2-0.2,0.2-0.5,0-0.6l-0.7-0.7c-0.2-0.2-0.5-0.2-0.6,0l-4.3,4.3
		C196.3,421.4,196,421.4,195.8,421.2z"/>
	<path id="XMLID_45_" class="st1" d="M178.7,289.7l-1.6-1.6c-0.2-0.2-0.5-0.2-0.8,0l-0.8,0.8c-0.2,0.2-0.2,0.5,0,0.8l2,2l1.2,1.2
		c0.2,0.2,0.5,0.2,0.8,0l1.2-1.2l5.4-5.4c0.2-0.2,0.2-0.5,0-0.8l-0.8-0.8c-0.2-0.2-0.5-0.2-0.8,0l-5,5
		C179.2,290,178.9,290,178.7,289.7z"/>
	<path id="XMLID_42_" class="st1" d="M162.1,360.9l-1.6-1.6c-0.2-0.2-0.5-0.2-0.8,0l-0.8,0.8c-0.2,0.2-0.2,0.5,0,0.8l2,2l1.2,1.2
		c0.2,0.2,0.5,0.2,0.8,0l1.2-1.2l5.4-5.4c0.2-0.2,0.2-0.5,0-0.8l-0.8-0.8c-0.2-0.2-0.5-0.2-0.8,0l-5,5
		C162.6,361.1,162.3,361.1,162.1,360.9z"/>
	<path id="XMLID_39_" class="st1" d="M45.5,313.3l-1.6-1.6c-0.2-0.2-0.5-0.2-0.8,0l-0.8,0.8c-0.2,0.2-0.2,0.5,0,0.8l2,2l1.2,1.2
		c0.2,0.2,0.5,0.2,0.8,0l1.2-1.2l5.4-5.4c0.2-0.2,0.2-0.5,0-0.8l-0.8-0.8c-0.2-0.2-0.5-0.2-0.8,0l-5,5
		C46,313.5,45.7,313.5,45.5,313.3z"/>
	<path id="XMLID_36_" class="st1" d="M303.9,281.2l-1.6-1.6c-0.2-0.2-0.5-0.2-0.8,0l-0.8,0.8c-0.2,0.2-0.2,0.5,0,0.8l2,2l1.2,1.2
		c0.2,0.2,0.5,0.2,0.8,0l1.2-1.2l5.4-5.4c0.2-0.2,0.2-0.5,0-0.8l-0.8-0.8c-0.2-0.2-0.5-0.2-0.8,0l-5,5
		C304.4,281.4,304.1,281.4,303.9,281.2z"/>
	<path id="XMLID_33_" class="st1" d="M258.6,231.3l-1.6-1.6c-0.2-0.2-0.5-0.2-0.8,0l-0.8,0.8c-0.2,0.2-0.2,0.5,0,0.8l2,2l1.2,1.2
		c0.2,0.2,0.5,0.2,0.8,0l1.2-1.2l5.4-5.4c0.2-0.2,0.2-0.5,0-0.8l-0.8-0.8c-0.2-0.2-0.5-0.2-0.8,0l-5,5
		C259.2,231.5,258.8,231.5,258.6,231.3z"/>
	<path id="XMLID_8_" class="st1" d="M123.9,255.3l-1.5-1.5c-0.2-0.2-0.5-0.2-0.7,0l-0.8,0.8c-0.2,0.2-0.2,0.5,0,0.7l1.8,1.8l1.1,1.1
		c0.2,0.2,0.5,0.2,0.7,0l1.1-1.1l4.9-4.9c0.2-0.2,0.2-0.5,0-0.7l-0.8-0.8c-0.2-0.2-0.5-0.2-0.7,0l-4.5,4.5
		C124.4,255.5,124.1,255.5,123.9,255.3z"/>
	<path id="XMLID_7_" class="st2" d="M207.9,319.9l-1.5-1.5c-0.2-0.2-0.5-0.2-0.7,0l-0.8,0.8c-0.2,0.2-0.2,0.5,0,0.7l1.8,1.8l1.1,1.1
		c0.2,0.2,0.5,0.2,0.7,0l1.1-1.1l4.9-4.9c0.2-0.2,0.2-0.5,0-0.7l-0.8-0.8c-0.2-0.2-0.5-0.2-0.7,0l-4.5,4.5
		C208.4,320.1,208.1,320.1,207.9,319.9z"/>
	<path id="XMLID_6_" class="st2" d="M281.2,356.9l-1.5-1.5c-0.2-0.2-0.5-0.2-0.7,0l-0.8,0.8c-0.2,0.2-0.2,0.5,0,0.7l1.8,1.8l1.1,1.1
		c0.2,0.2,0.5,0.2,0.7,0l1.1-1.1l4.9-4.9c0.2-0.2,0.2-0.5,0-0.7l-0.8-0.8c-0.2-0.2-0.5-0.2-0.7,0l-4.5,4.5
		C281.7,357.1,281.4,357.1,281.2,356.9z"/>
	<path id="XMLID_5_" class="st2" d="M82,278.4l-1.1-1.1c-0.1-0.1-0.4-0.1-0.5,0l-0.6,0.6c-0.1,0.1-0.1,0.4,0,0.5l1.3,1.3l0.8,0.8
		c0.1,0.1,0.4,0.1,0.5,0l0.8-0.8l3.6-3.6c0.1-0.1,0.1-0.4,0-0.5l-0.6-0.6c-0.1-0.1-0.4-0.1-0.5,0l-3.3,3.3
		C82.4,278.5,82.2,278.5,82,278.4z"/>
	<path id="XMLID_4_" class="st2" d="M180.9,401.5l-1.6-1.6c-0.2-0.2-0.5-0.2-0.7,0l-0.8,0.8c-0.2,0.2-0.2,0.5,0,0.7l2,2l1.2,1.2
		c0.2,0.2,0.5,0.2,0.7,0l1.2-1.2l5.2-5.2c0.2-0.2,0.2-0.5,0-0.7l-0.8-0.8c-0.2-0.2-0.5-0.2-0.7,0l-4.9,4.9
		C181.4,401.7,181.1,401.7,180.9,401.5z"/>
	<path id="XMLID_3_" class="st2" d="M74.8,406.7l-1.1-1.1c-0.1-0.1-0.4-0.1-0.5,0l-0.6,0.6c-0.1,0.1-0.1,0.4,0,0.5L74,408l0.8,0.8
		c0.1,0.1,0.4,0.1,0.5,0l0.8-0.8l3.6-3.6c0.1-0.1,0.1-0.4,0-0.5l-0.6-0.6c-0.1-0.1-0.4-0.1-0.5,0l-3.3,3.3
		C75.2,406.8,75,406.8,74.8,406.7z"/>
</g>
</svg>
