<?xml version="1.0" encoding="utf-8"?>
<!-- Generator: Adobe Illustrator 19.0.0, SVG Export Plug-In . SVG Version: 6.00 Build 0)  -->
<svg version="1.1" id="Layer_1" xmlns="http://www.w3.org/2000/svg" xmlns:xlink="http://www.w3.org/1999/xlink" x="0px" y="0px"
	 viewBox="0 0 172.9 124" style="enable-background:new 0 0 172.9 124;" xml:space="preserve">
<style type="text/css">
	.st0{fill:#383637;}
	.st1{fill:#005B7F;}
	.st2{fill:#FFFFFF;}
</style>
<g>
	<g>
		<path class="st0" d="M2,41v78c0,1.7,1.8,3,3.5,3h163c1.7,0,2.5-1.3,2.5-3V41H2z"/>
	</g>
	<path class="st1" d="M2,5c0-1.7,1.3-3,3-3h163c1.7,0,3,1.3,3,3v34.2H2V5z"/>
	<g>
		<path class="st2" d="M29,78.3c0.9,0,1.8-0.1,2.6-0.3c0.8-0.2,1.5-0.5,2.1-0.9c0.6-0.4,1.1-0.9,1.4-1.6c0.3-0.6,0.5-1.4,0.5-2.4
			c0-0.8-0.2-1.5-0.6-2.1c-0.4-0.6-0.9-1.1-1.6-1.5c-0.6-0.4-1.6-0.9-2.7-1.4c-1.1-0.5-1.9-0.9-2.4-1.2c-0.4-0.3-0.7-0.6-0.9-0.9
			c-0.2-0.3-0.3-0.7-0.3-1.2c0-0.7,0.2-1.2,0.7-1.6c0.5-0.4,1.2-0.6,2-0.6c0.6,0,1.1,0.1,1.5,0.2c0.4,0.1,0.7,0.4,1.1,0.8
			c0.3,0.4,0.6,0.7,0.8,1.3l0.1,0h2.2v-3.5l-0.3,0c-1.1-0.2-2-0.4-2.7-0.4c-0.7-0.1-1.5-0.1-2.2-0.1c-1.3,0-2.5,0.2-3.5,0.6
			c-1,0.4-1.8,0.9-2.3,1.7c-0.5,0.7-0.8,1.6-0.8,2.6c0,0.8,0.2,1.5,0.6,2.1c0.4,0.6,0.9,1.1,1.6,1.5c0.6,0.4,1.5,0.9,2.5,1.3
			c1.2,0.5,2,0.9,2.5,1.2c0.4,0.3,0.8,0.6,1,0.9c0.2,0.3,0.3,0.8,0.3,1.3c0,0.5-0.1,0.9-0.2,1.2c-0.2,0.3-0.4,0.5-0.7,0.7
			c-0.3,0.2-0.6,0.3-1,0.4c-0.4,0.1-0.8,0.1-1.2,0.1c-1,0-1.8-0.2-2.3-0.7c-0.6-0.4-1-1.4-1.3-2.4L25.4,73h-2v4.5l0.1,0
			c0.9,0.2,1.7,0.4,2.6,0.6C27.1,78.2,28,78.3,29,78.3z"/>
		<path class="st2" d="M42.5,72.6c0,1.9,0.6,3.3,1.4,4.3c0.8,0.9,2,1.4,3.6,1.4c0.8,0,1.7-0.2,2.4-0.6c0.7-0.4,1.6-1,2.4-1.8
			l0.2-0.2l-1.1-1.3l-0.2,0.2c-0.4,0.3-0.7,0.6-1.1,0.8c-0.4,0.2-0.8,0.3-1.2,0.3c-0.5,0-0.8-0.1-1.1-0.2c-0.3-0.1-0.5-0.4-0.8-0.7
			c-0.2-0.3-0.3-0.8-0.4-1.4c-0.1-0.6-0.1-1.5-0.1-2.6V63h5v-2h-5v-4h-3l0,0.2c-0.1,1-0.2,1.8-0.4,2.3c-0.1,0.5-0.3,0.9-0.4,1.3
			c-0.2,0.3-0.4,0.6-0.7,0.8c-0.3,0.2-0.7,0.4-1.3,0.4l-0.2,0V63h2V72.6z"/>
		<path class="st2" d="M68.5,75.3L68.4,78h1.3l3.8,0v-1.3l0,0c-0.6-0.1-0.9-0.2-1.1-0.4c-0.2-0.1-0.3-0.3-0.4-0.5
			c-0.1-0.2-0.3-0.5-0.3-0.8c0-0.4-0.2-1-0.2-1.9V61h-5v1.5l0.1,0c0.4,0.1,0.7,0.2,0.9,0.3c0.2,0.1,0.3,0.2,0.4,0.3
			c0.1,0.1,0.2,0.2,0.2,0.4c0.1,0.2,0.2,0.4,0.2,0.7c0,0.3,0.1,0.8,0.1,1.4v6.4c0,0.5-0.2,1-0.4,1.4c-0.2,0.4-0.6,0.8-1,1.2
			c-0.5,0.4-0.9,0.7-1.3,0.9c-0.4,0.2-0.8,0.2-1.2,0.2c-0.6,0-1.1-0.1-1.4-0.3c-0.3-0.2-0.6-0.5-0.8-0.8c-0.2-0.3-0.5-0.8-0.6-1.5
			c-0.1-0.7-0.3-1.7-0.3-3V61h-5v1.5l0.2,0c0.8,0.2,1.1,0.4,1.3,0.5c0.2,0.2,0.3,0.4,0.4,0.7c0.1,0.3,0.2,1,0.2,1.9v6.5
			c0,1.5,0.1,2.7,0.5,3.5c0.3,0.9,0.9,1.5,1.6,2c0.7,0.4,1.6,0.7,2.7,0.7c0.9,0,1.8-0.3,2.7-0.8C66.7,77,67.6,76.3,68.5,75.3z"/>
		<path class="st2" d="M89.9,75.3L89.7,78H91l4.4,0v-1.3l-0.3,0c-0.6-0.1-1-0.2-1.3-0.4c-0.2-0.1-0.4-0.3-0.5-0.5
			c-0.1-0.2,0-0.5-0.1-0.8c0-0.4,0.1-1,0.1-1.9V53h-1.5l-4.5,0.2v1.3l0.2,0c0.7,0.1,1,0.2,1.2,0.3c0.2,0.1,0.3,0.2,0.4,0.3
			c0.1,0.1,0.2,0.4,0.3,0.6c0.1,0.3,0,0.6,0,1.1c0,0.4-0.1,1.2-0.1,2.3v2.3c0-0.2-0.9-0.4-1.5-0.5c-0.6-0.1-1.3-0.2-2-0.2
			c-1.4,0-2.7,0.3-3.9,1c-1.2,0.7-2.1,1.7-2.8,3c-0.7,1.3-1,3-1,4.9c0,2.7,0.5,4.8,1.6,6.3c1.1,1.5,2.6,2.2,4.5,2.2
			c0.7,0,1.4-0.1,2-0.4c0.6-0.2,1.2-0.6,1.8-1C88.7,76.6,89.3,76,89.9,75.3z M89.5,67.6v3.8c0,0.5,0.1,1,0,1.3
			c-0.1,0.3-0.1,0.6-0.3,0.9c-0.1,0.3-0.3,0.5-0.6,0.9c-0.3,0.3-0.6,0.6-0.9,0.7c-0.3,0.2-0.6,0.3-0.9,0.4c-0.3,0.1-0.7,0.1-1.2,0.1
			c-1.2,0-2-0.5-2.6-1.6c-0.6-1.1-0.9-2.7-0.9-4.9c0-2.1,0.4-3.8,1.1-4.9c0.7-1.1,1.7-1.6,3.1-1.6c0.5,0,0.9,0.1,1.3,0.2
			c0.3,0.1,0.7,0.3,1,0.5c0.3,0.2,0.5,0.5,0.7,0.8c0.2,0.3,0.2,0.8,0.2,1.3C89.6,66,89.5,66.7,89.5,67.6z"/>
		<path class="st2" d="M113.7,75l0.2-0.2l-1.4-1.5l-0.2,0.2c-0.7,0.8-1.4,1.3-2.2,1.6c-0.7,0.3-1.5,0.5-2.4,0.5
			c-1,0-1.9-0.2-2.5-0.7c-0.6-0.5-1.1-1.2-1.4-2c-0.3-0.9-0.4-2-0.4-3.3V70h10.7l0-0.5c0-1.6-0.2-3-0.5-3.9c-0.3-1-0.7-1.9-1.2-2.5
			c-0.5-0.7-1.2-1.2-2-1.6c-0.8-0.4-1.9-0.6-3-0.6c-1.5,0-2.9,0.4-4,1.1c-1.2,0.7-2.1,1.8-2.7,3.1c-0.6,1.3-0.9,2.9-0.9,4.6
			c0,2.8,0.6,4.9,1.9,6.4c1.2,1.5,3.1,2.2,5.5,2.2c0.9,0,1.7-0.1,2.5-0.4c0.8-0.3,1.4-0.6,2.1-1C112.3,76.4,113,75.8,113.7,75z
			 M107.3,62.7c0.7,0,1.3,0.2,1.7,0.6c0.4,0.4,0.8,1.1,1,1.8c0.2,0.7,0.4,1.9,0.4,2.9h-6.9c0.1-2,0.5-2.9,1.2-3.8
			C105.3,63.3,106.2,62.7,107.3,62.7z"/>
		<path class="st2" d="M130.4,75.2c-0.1,0.3-0.1,0.6-0.2,0.7c-0.1,0.2-0.2,0.3-0.4,0.4c-0.2,0.1-0.6,0.2-1.1,0.3l-0.3,0.1V78h8v-1.3
			l-0.4-0.1c-0.5-0.1-1-0.3-1.2-0.4c-0.2-0.1-0.4-0.2-0.5-0.4c-0.1-0.2,0-0.4,0-0.7c0-0.3,0.1-0.9,0.1-1.7V67c0-1-0.3-1.8-0.4-2.4
			c-0.1-0.6-0.4-1.2-0.7-1.7c-0.3-0.5-0.6-0.9-1-1.2c-0.4-0.3-0.9-0.6-1.4-0.7c-1-0.3-2.4-0.3-3.5,0.1c-0.5,0.2-1.1,0.5-1.6,0.9
			c-0.5,0.3-1.1,0.9-1.9,1.6l0.2-2.7h-1.3l-4.4,0.2v1.4l0.3,0c0.5,0.1,0.9,0.2,1.2,0.3c0.2,0.1,0.4,0.3,0.5,0.5
			c0.1,0.2,0.1,0.6,0.1,1c0,0.4-0.1,1-0.1,1.7v7.5c0,0.8,0.1,1.4,0,1.7c-0.1,0.3-0.1,0.6-0.2,0.7c-0.1,0.2-0.2,0.3-0.4,0.4
			c-0.2,0.1-0.7,0.2-1.1,0.3l-0.4,0.1V78h8v-1.3l-0.4,0c-0.5-0.1-1-0.3-1.3-0.5c-0.2-0.2-0.2-0.4-0.3-0.7c-0.1-0.4,0-1,0-2v-6.4
			c0-0.5-0.1-1,0.1-1.3c0.2-0.4,0.4-0.8,0.9-1.2c0.5-0.4,0.8-0.7,1.2-0.9c0.7-0.3,1.6-0.3,2.1-0.1c0.2,0.1,0.5,0.2,0.6,0.4
			c0.2,0.1,0.3,0.3,0.5,0.5s0.3,0.5,0.4,0.9c0.1,0.4,0.1,0.9,0.1,1.6c0,0.6,0,1.4,0,2.2v4.5C130.5,74.3,130.5,74.9,130.4,75.2z"/>
		<path class="st2" d="M150.4,74.5l-0.2,0.2c-0.4,0.3-0.7,0.6-1.1,0.8c-0.4,0.2-0.8,0.3-1.2,0.3c-0.5,0-0.8-0.1-1.1-0.2
			c-0.3-0.1-0.5-0.4-0.8-0.7c-0.2-0.3-0.4-0.8-0.5-1.4c-0.1-0.6-0.1-1.5-0.1-2.6V63h6v-2h-6v-4h-2.9l0,0.2c-0.1,1-0.2,1.8-0.4,2.3
			c-0.1,0.5-0.3,0.9-0.4,1.3c-0.2,0.3-0.4,0.6-0.7,0.8c-0.3,0.2-0.8,0.4-1.3,0.4l-0.2,0V63h3v9.6c0,1.9,0.2,3.3,0.9,4.3
			c0.8,0.9,1.8,1.4,3.4,1.4c0.8,0,1.5-0.2,2.3-0.6c0.7-0.4,1.5-1,2.3-1.8l0.2-0.2L150.4,74.5z"/>
		<path class="st2" d="M35.3,105.7c-0.7,0.7-1.4,1.3-2,1.6c-0.6,0.3-1.3,0.4-2.1,0.4c-0.8,0-1.4-0.1-1.9-0.4
			c-0.5-0.3-0.9-0.7-1.2-1.2c-0.3-0.5-0.5-1.2-0.7-2c-0.1-0.8-0.2-1.7-0.2-2.6c0-1.5,0.2-2.7,0.5-3.8c0.3-1,0.8-1.8,1.4-2.2
			c0.6-0.5,1.2-0.7,2-0.7c0.5,0,1,0.1,1.3,0.2c0.3,0.2,0.6,0.4,0.9,0.8c0.3,0.4,0.5,1.1,0.7,1.9l0,0.4h2.5v-4.4l-0.1-0.1
			c-0.8-0.2-1.6-0.4-2.4-0.5c-0.8-0.1-1.7-0.2-2.6-0.2c-1.5,0-2.9,0.4-4.1,1.1c-1.2,0.7-2.1,1.8-2.8,3.1c-0.7,1.3-1,2.9-1,4.6
			c0,2.7,0.6,4.9,1.8,6.3c1.2,1.5,2.9,2.2,5.1,2.2c0.6,0,1.2-0.1,1.7-0.2c0.5-0.1,1-0.3,1.6-0.5c0.5-0.2,1-0.5,1.5-0.9
			c0.5-0.4,1-0.9,1.6-1.5l0.1-0.2l-1.3-1.5L35.3,105.7z"/>
		<path class="st2" d="M50.3,92.9c-1.5,0-2.8,0.3-4,1c-1.2,0.7-2.1,1.7-2.8,3c-0.7,1.3-1,3-1,4.9c0,2.8,0.7,4.9,1.9,6.4
			c1.3,1.4,3.2,2.2,5.6,2.2c1.6,0,3-0.3,4.2-1c1.2-0.7,2.1-1.7,2.8-3c0.6-1.3,1-3,1-4.9c0-2.7-0.7-4.8-1.9-6.3
			C54.8,93.6,52.8,92.9,50.3,92.9z M52.1,107.9c-0.5,0.3-1.1,0.5-1.8,0.5c-1.3,0-2.3-0.6-3-1.8c-0.7-1.2-1.1-3-1.1-5.3
			c0-2.2,0.4-3.8,1.1-5c0.7-1.1,1.7-1.7,3-1.7c0.8,0,1.4,0.2,2,0.7c0.6,0.5,1.1,1.3,1.4,2.3c0.4,1.1,0.5,2.5,0.5,4.1
			c0,0.9-0.1,1.7-0.2,2.5c-0.1,0.8-0.4,1.5-0.7,2.1C53,107.1,52.6,107.6,52.1,107.9z"/>
		<path class="st2" d="M79.5,108.2c-0.2-0.1-0.3-0.3-0.4-0.5c-0.1-0.2-0.4-0.5-0.4-0.8c0-0.4-0.2-1-0.2-1.9V93h-5v1.5l0.2,0
			c0.4,0.1,0.7,0.2,0.9,0.3c0.2,0.1,0.3,0.2,0.4,0.3c0.1,0.1,0.2,0.2,0.2,0.4c0.1,0.2,0.2,0.4,0.2,0.7c0,0.3,0.1,0.8,0.1,1.4v6.4
			c0,0.5-0.1,1-0.3,1.4c-0.2,0.4-0.5,0.8-1,1.2c-0.5,0.4-0.9,0.7-1.3,0.9c-0.4,0.2-0.8,0.2-1.2,0.2c-0.6,0-1.1-0.1-1.4-0.3
			c-0.3-0.2-0.6-0.5-0.8-0.8c-0.2-0.3-0.6-0.8-0.7-1.5c-0.1-0.7-0.4-1.7-0.4-3V93h-5v1.5l0.2,0c0.8,0.2,1.2,0.4,1.3,0.5
			c0.2,0.2,0.3,0.4,0.4,0.7c0.1,0.3,0.1,1,0.1,1.9v6.5c0,1.5,0.2,2.7,0.5,3.5c0.3,0.9,0.9,1.5,1.6,2c0.7,0.4,1.6,0.7,2.7,0.7
			c0.9,0,1.8-0.3,2.7-0.7c0.8-0.5,1.7-1.3,2.6-2.2l-0.1,2.7h1.3l3.7,0v-1.3l0,0C79.9,108.5,79.7,108.4,79.5,108.2z"/>
		<path class="st2" d="M103.1,108.3c-0.2-0.1-0.3-0.2-0.4-0.4c-0.1-0.2-0.1-0.4-0.2-0.7c0-0.3,0-0.9,0-1.7V99c0-1-0.1-1.8-0.2-2.4
			c-0.1-0.6-0.3-1.2-0.6-1.7c-0.3-0.5-0.6-0.9-1-1.2c-0.4-0.3-0.9-0.6-1.4-0.7c-1-0.3-2.4-0.3-3.5,0.1c-0.5,0.2-1.1,0.5-1.6,0.9
			c-0.5,0.3-1.1,0.9-1.9,1.6l0.2-2.7h-1.3l-4.7,0.2v1.4l0.4,0c0.5,0.1,1,0.2,1.2,0.3c0.2,0.1,0.5,0.3,0.6,0.5c0.1,0.2,0.4,0.6,0.5,1
			c0,0.4,0.3,1,0.3,1.7v7.5c0,0.8-0.3,1.4-0.3,1.7c-0.1,0.3-0.3,0.6-0.4,0.7c-0.1,0.2-0.3,0.3-0.5,0.4c-0.2,0.1-0.4,0.2-0.8,0.3
			l-0.1,0.1v1.3h7v-1.3l-0.2,0c-0.5-0.1-1-0.3-1.2-0.5c-0.2-0.2-0.4-0.4-0.4-0.7c-0.1-0.4-0.1-1-0.1-2v-6.4c0-0.5,0.1-1,0.3-1.3
			c0.2-0.4,0.5-0.8,1-1.2c0.5-0.4,0.9-0.7,1.2-0.9c0.7-0.3,1.7-0.3,2.2-0.1c0.2,0.1,0.5,0.2,0.7,0.4c0.2,0.1,0.4,0.3,0.5,0.5
			c0.1,0.2,0.3,0.5,0.4,0.9c0.1,0.4-0.1,0.9,0,1.6c0,0.6-0.2,1.4-0.2,2.2v4.5c0,0.8,0.2,1.3,0.1,1.7c-0.1,0.3,0,0.6-0.1,0.7
			c-0.1,0.1-0.2,0.3-0.3,0.4c-0.2,0.1-0.3,0.2-0.7,0.3l0,0.1v1.3h7v-1.3l-0.3-0.1C103.7,108.5,103.3,108.4,103.1,108.3z"/>
		<path class="st2" d="M121.7,105.7c-0.7,0.7-1.4,1.3-2,1.6c-0.6,0.3-1.3,0.4-2.1,0.4c-0.8,0-1.4-0.1-1.9-0.4
			c-0.5-0.3-0.9-0.7-1.2-1.2c-0.3-0.5-0.5-1.2-0.7-2c-0.1-0.8-0.2-1.7-0.2-2.6c0-1.5,0.2-2.7,0.5-3.8c0.3-1,0.8-1.8,1.4-2.2
			c0.6-0.5,1.2-0.7,2-0.7c0.5,0,1,0.1,1.3,0.2c0.3,0.2,0.6,0.4,0.9,0.8c0.3,0.4,0.5,1.1,0.7,1.9l0,0.4h2.1v-4.4l0.1-0.1
			c-0.8-0.2-1.5-0.4-2.3-0.5c-0.8-0.1-1.6-0.2-2.6-0.2c-1.5,0-2.9,0.4-4.1,1.1c-1.2,0.7-2.1,1.8-2.8,3.1c-0.7,1.3-1,2.9-1,4.6
			c0,2.7,0.6,4.9,1.8,6.3c1.2,1.5,2.9,2.2,5.1,2.2c0.6,0,1.2-0.1,1.7-0.2c0.5-0.1,1-0.3,1.6-0.5c0.5-0.2,1-0.5,1.5-0.9
			c0.5-0.4,1-0.9,1.6-1.5l0.1-0.2l-1.3-1.5L121.7,105.7z"/>
		<path class="st2" d="M135.1,108.2c-0.2-0.2-0.4-0.4-0.4-0.7c-0.1-0.4-0.1-1-0.1-2V93h-1.3l-3.7,0.2v1.4l0,0c0.5,0.1,0.7,0.2,1,0.3
			c0.2,0.1,0.3,0.3,0.4,0.5c0.1,0.2,0.4,0.6,0.4,1c0,0.4,0.2,1,0.2,1.7v7.5c0,0.8-0.2,1.4-0.3,1.7c-0.1,0.3-0.3,0.6-0.4,0.7
			c-0.1,0.2-0.3,0.3-0.4,0.4c-0.2,0.1-0.4,0.2-0.8,0.3l-0.1,0.1v1.3h7v-1.3l-0.2,0C135.7,108.5,135.3,108.4,135.1,108.2z"/>
		<rect x="130.5" y="86" class="st2" width="4" height="4"/>
		<path class="st2" d="M148.5,108.2c-0.2-0.2-0.6-0.4-0.7-0.7c-0.1-0.4-0.4-1-0.4-2V85h-0.8l-4.2,0.2v1.3l0.1,0
			c0.7,0.1,1,0.2,1.1,0.3c0.2,0.1,0.3,0.2,0.4,0.3c0.1,0.1,0.2,0.3,0.3,0.6c0.1,0.3,0.1,0.6,0.1,1.1c0,0.4,0,1.2,0,2.3v14.3
			c0,0.6,0,1.1,0,1.5c0,0.4-0.1,0.6-0.2,0.8c-0.1,0.2-0.2,0.3-0.4,0.5c-0.1,0.1-0.5,0.2-1.2,0.4l-0.2,0v1.3h7v-1.3l0,0
			C148.9,108.5,148.7,108.4,148.5,108.2z"/>
	</g>
	<g>
		<g>
			<path class="st2" d="M29.4,23.5c0,0.5-0.1,0.9-0.4,1.2s-0.6,0.6-1.1,0.8c-0.5,0.2-1,0.3-1.6,0.3c-0.5,0-1,0-1.3-0.1
				c-0.4-0.1-0.7-0.2-1.1-0.4v-1.8c0.4,0.2,0.8,0.4,1.3,0.5s0.8,0.2,1.2,0.2c0.3,0,0.5-0.1,0.7-0.2c0.1-0.1,0.2-0.2,0.2-0.4
				c0-0.1,0-0.2-0.1-0.3c-0.1-0.1-0.2-0.2-0.3-0.2c-0.1-0.1-0.5-0.2-1-0.5c-0.5-0.2-0.9-0.4-1.2-0.6c-0.3-0.2-0.4-0.4-0.6-0.7
				c-0.1-0.3-0.2-0.6-0.2-1c0-0.7,0.3-1.2,0.8-1.6c0.5-0.4,1.2-0.6,2.2-0.6c0.8,0,1.6,0.2,2.5,0.5l-0.6,1.6
				c-0.7-0.3-1.4-0.5-1.9-0.5c-0.3,0-0.5,0-0.6,0.1s-0.2,0.2-0.2,0.3c0,0.1,0.1,0.3,0.2,0.4c0.2,0.1,0.6,0.3,1.3,0.6
				c0.7,0.3,1.1,0.6,1.4,0.9C29.3,22.6,29.4,23,29.4,23.5z"/>
			<path class="st2" d="M38,18.3v4.5c0,1-0.3,1.7-0.9,2.3c-0.6,0.5-1.4,0.8-2.5,0.8c-1.1,0-1.9-0.3-2.5-0.8
				c-0.6-0.5-0.9-1.3-0.9-2.2v-4.5h2.1v4.4c0,0.5,0.1,0.9,0.3,1.1c0.2,0.2,0.5,0.4,0.9,0.4c0.4,0,0.7-0.1,0.9-0.4
				c0.2-0.2,0.3-0.6,0.3-1.2v-4.4H38z"/>
			<path class="st2" d="M47.7,25.8H45l-2.9-5.3h0c0.1,0.8,0.1,1.5,0.1,1.9v3.4h-1.9v-7.5H43l2.9,5.2h0c-0.1-0.8-0.1-1.4-0.1-1.8
				v-3.4h1.9V25.8z"/>
			<path class="st2" d="M58.6,25.8h-2.5l-0.8-3.3c0-0.1-0.1-0.4-0.2-0.8c-0.1-0.4-0.1-0.7-0.2-1c0,0.2-0.1,0.5-0.1,0.8
				s-0.1,0.6-0.2,0.9c-0.1,0.3-0.3,1.4-0.8,3.3h-2.5l-1.9-7.5h2l0.9,3.7c0.2,0.8,0.3,1.5,0.4,2c0-0.3,0.1-0.8,0.2-1.4
				c0.1-0.6,0.2-1.1,0.3-1.5l0.7-2.8h2l0.7,2.8c0.1,0.5,0.2,1,0.3,1.6s0.2,1,0.2,1.3c0-0.4,0.2-1,0.4-2l0.9-3.8h2L58.6,25.8z"/>
			<path class="st2" d="M66.7,25.8l-0.4-1.4h-2.6l-0.4,1.4H61l2.6-7.5h2.8l2.6,7.5H66.7z M65.9,22.7l-0.3-1.2
				c-0.1-0.3-0.2-0.6-0.3-1.1C65.1,20,65,19.7,65,19.5c0,0.2-0.1,0.5-0.2,0.9c-0.1,0.4-0.3,1.2-0.6,2.4H65.9z"/>
			<path class="st2" d="M72.7,21.1l1.4-2.8h2.3l-2.6,4.5v2.9h-2.1v-2.9L69,18.3h2.3L72.7,21.1z"/>
			<path class="st2" d="M87.5,18.3v4.8c0,0.6-0.1,1-0.4,1.4c-0.2,0.4-0.6,0.7-1.1,1c-0.5,0.2-1,0.3-1.7,0.3c-1,0-1.7-0.2-2.3-0.7
				c-0.5-0.5-0.8-1.2-0.8-2v-4.8h1.3v4.7c0,0.6,0.2,1.1,0.5,1.4c0.3,0.3,0.8,0.4,1.4,0.4c1.2,0,1.8-0.6,1.8-1.8v-4.7H87.5z"/>
			<path class="st2" d="M96.6,25.8H95l-3.9-5.9h0l0,0.3c0,0.6,0.1,1.2,0.1,1.7v3.9h-1.2v-7.5h1.6l3.9,5.9h0c0-0.1,0-0.4,0-0.9
				c0-0.5,0-0.9,0-1.2v-3.9h1.2V25.8z"/>
			<path class="st2" d="M99.2,25.8v-7.5h1.3v7.5H99.2z"/>
			<path class="st2" d="M107.8,18.3h1.3l-2.8,7.5H105l-2.7-7.5h1.3l1.6,4.6c0.1,0.2,0.2,0.5,0.3,0.9c0.1,0.3,0.2,0.6,0.2,0.8
				c0-0.3,0.1-0.6,0.2-0.9c0.1-0.3,0.2-0.6,0.2-0.8L107.8,18.3z"/>
			<path class="st2" d="M115.3,25.8h-4.4v-7.5h4.4v1h-3.2v2h3v1h-3v2.3h3.2V25.8z"/>
			<path class="st2" d="M118.9,22.8v3h-1.3v-7.5h2.2c1,0,1.8,0.2,2.3,0.5c0.5,0.4,0.7,0.9,0.7,1.6c0,0.9-0.5,1.6-1.5,2l2.2,3.3H122
				l-1.9-3H118.9z M118.9,21.8h0.9c0.6,0,1-0.1,1.3-0.3c0.3-0.2,0.4-0.5,0.4-0.9c0-0.4-0.1-0.7-0.4-0.9c-0.3-0.2-0.7-0.3-1.3-0.3
				h-0.8V21.8z"/>
			<path class="st2" d="M130,23.8c0,0.7-0.3,1.2-0.8,1.6c-0.5,0.4-1.2,0.6-2.1,0.6c-0.9,0-1.6-0.1-2.2-0.4v-1.2
				c0.4,0.2,0.7,0.3,1.1,0.4s0.8,0.1,1.1,0.1c0.5,0,0.9-0.1,1.1-0.3c0.2-0.2,0.4-0.4,0.4-0.7c0-0.3-0.1-0.5-0.3-0.7
				c-0.2-0.2-0.7-0.4-1.4-0.7c-0.7-0.3-1.2-0.6-1.5-0.9c-0.3-0.4-0.4-0.8-0.4-1.3c0-0.6,0.2-1.1,0.7-1.5c0.5-0.4,1.1-0.5,1.9-0.5
				c0.8,0,1.5,0.2,2.2,0.5l-0.4,1c-0.7-0.3-1.3-0.4-1.9-0.4c-0.4,0-0.7,0.1-0.9,0.3c-0.2,0.2-0.3,0.4-0.3,0.7c0,0.2,0,0.4,0.1,0.5
				c0.1,0.1,0.2,0.3,0.4,0.4c0.2,0.1,0.6,0.3,1.1,0.5c0.6,0.2,1,0.4,1.3,0.6c0.3,0.2,0.5,0.4,0.6,0.7C130,23.1,130,23.4,130,23.8z"
				/>
			<path class="st2" d="M132.2,25.8v-7.5h1.3v7.5H132.2z"/>
			<path class="st2" d="M138.9,25.8h-1.3v-6.4h-2.3v-1h5.9v1h-2.3V25.8z"/>
			<path class="st2" d="M145.8,21.7l1.9-3.4h1.4l-2.6,4.6v2.9h-1.3v-2.9l-2.6-4.6h1.4L145.8,21.7z"/>
		</g>
	</g>
</g>
</svg>
